<svg xmlns="http://www.w3.org/2000/svg" xmlns:xlink="http://www.w3.org/1999/xlink" width="179" zoomAndPan="magnify" viewBox="0 0 134.25 37.5" height="50" preserveAspectRatio="xMidYMid meet" version="1.0"><defs><clipPath id="ac5d874725"><path d="M 0.511719 0 L 132.996094 0 L 132.996094 37.007812 L 0.511719 37.007812 Z M 0.511719 0 " clip-rule="nonzero"/></clipPath><clipPath id="2f01baf655"><path d="M 2.480469 0.542969 L 131.597656 0.542969 L 131.597656 36.070312 L 2.480469 36.070312 Z M 2.480469 0.542969 " clip-rule="nonzero"/></clipPath><clipPath id="dd27319062"><path d="M 5.96875 3.886719 L 67 3.886719 L 67 32.761719 L 5.96875 32.761719 Z M 5.96875 3.886719 " clip-rule="nonzero"/></clipPath></defs><g clip-path="url(#ac5d874725)"><rect x="-13.425" width="161.1" fill="#ffffff" y="-3.75" height="45" fill-opacity="1"/><rect x="-13.425" width="161.1" fill="#ffffff" y="-3.75" height="45" fill-opacity="1"/></g><g clip-path="url(#2f01baf655)"><path stroke-linecap="butt" transform="matrix(0.370066, 0, 0, 0.370066, 2.480677, 0.542971)" fill="none" stroke-linejoin="miter" d="M -0.000563483 -0.00000694331 L 348.902758 -0.00000694331 L 348.902758 96.097767 L -0.000563483 96.097767 Z M -0.000563483 -0.00000694331 " stroke="#777777" stroke-width="6" stroke-opacity="1" stroke-miterlimit="4"/></g><g clip-path="url(#dd27319062)"><path fill="#ff4c3b" d="M 5.96875 3.886719 L 66.996094 3.886719 L 66.996094 32.761719 L 5.96875 32.761719 Z M 5.96875 3.886719 " fill-opacity="1" fill-rule="nonzero"/></g><path fill="#ffffff" d="M 13.253906 23 C 12.277344 23 11.40625 22.789062 10.648438 22.359375 C 9.890625 21.929688 9.300781 21.335938 8.875 20.578125 C 8.445312 19.820312 8.234375 18.949219 8.234375 17.972656 C 8.234375 16.980469 8.445312 16.109375 8.875 15.359375 C 9.300781 14.605469 9.890625 14.015625 10.648438 13.585938 C 11.40625 13.15625 12.277344 12.9375 13.253906 12.9375 C 14.242188 12.9375 15.113281 13.15625 15.867188 13.585938 C 16.621094 14.015625 17.210938 14.605469 17.640625 15.359375 C 18.070312 16.109375 18.289062 16.980469 18.289062 17.972656 C 18.289062 18.949219 18.070312 19.820312 17.640625 20.578125 C 17.210938 21.335938 16.621094 21.929688 15.867188 22.359375 C 15.113281 22.789062 14.242188 23 13.253906 23 Z M 9.484375 17.972656 C 9.484375 18.71875 9.640625 19.378906 9.960938 19.953125 C 10.277344 20.523438 10.71875 20.972656 11.285156 21.296875 C 11.859375 21.621094 12.511719 21.78125 13.253906 21.78125 C 14.003906 21.78125 14.65625 21.621094 15.21875 21.296875 C 15.785156 20.972656 16.226562 20.523438 16.546875 19.953125 C 16.863281 19.378906 17.023438 18.71875 17.023438 17.972656 C 17.023438 17.214844 16.863281 16.550781 16.546875 15.984375 C 16.226562 15.414062 15.785156 14.964844 15.21875 14.640625 C 14.65625 14.320312 14.003906 14.15625 13.253906 14.15625 C 12.511719 14.15625 11.859375 14.320312 11.285156 14.640625 C 10.71875 14.964844 10.277344 15.414062 9.960938 15.984375 C 9.640625 16.550781 9.484375 17.214844 9.484375 17.972656 Z M 9.484375 17.972656 " fill-opacity="1" fill-rule="nonzero"/><path fill="#ffffff" d="M 21.535156 22.824219 L 21.535156 13.117188 L 22.691406 13.117188 L 28.046875 20.71875 L 28.046875 13.117188 L 29.242188 13.117188 L 29.242188 22.824219 L 28.109375 22.824219 L 22.746094 15.226562 L 22.746094 22.824219 Z M 21.535156 22.824219 " fill-opacity="1" fill-rule="nonzero"/><path fill="#ffffff" d="M 33.117188 22.824219 L 33.117188 13.117188 L 34.34375 13.117188 L 34.34375 21.660156 L 39.054688 21.660156 L 39.054688 22.824219 Z M 33.117188 22.824219 " fill-opacity="1" fill-rule="nonzero"/><path fill="#ffffff" d="M 41.941406 13.117188 L 43.167969 13.117188 L 43.167969 22.824219 L 41.941406 22.824219 Z M 41.941406 13.117188 " fill-opacity="1" fill-rule="nonzero"/><path fill="#ffffff" d="M 47.042969 22.824219 L 47.042969 13.117188 L 48.199219 13.117188 L 53.554688 20.71875 L 53.554688 13.117188 L 54.75 13.117188 L 54.75 22.824219 L 53.617188 22.824219 L 48.25 15.226562 L 48.25 22.824219 Z M 47.042969 22.824219 " fill-opacity="1" fill-rule="nonzero"/><path fill="#ffffff" d="M 58.625 22.824219 L 58.625 13.117188 L 64.523438 13.117188 L 64.523438 14.257812 L 59.851562 14.257812 L 59.851562 17.316406 L 64.175781 17.316406 L 64.175781 18.441406 L 59.851562 18.441406 L 59.851562 21.6875 L 64.667969 21.6875 L 64.667969 22.824219 Z M 58.625 22.824219 " fill-opacity="1" fill-rule="nonzero"/><path fill="#777777" d="M 83.667969 23.03125 C 82.414062 23.03125 81.429688 22.734375 80.714844 22.136719 C 80.007812 21.539062 79.652344 20.722656 79.652344 19.675781 L 82.359375 19.675781 C 82.359375 20.046875 82.46875 20.339844 82.699219 20.546875 C 82.921875 20.753906 83.234375 20.855469 83.628906 20.855469 C 83.96875 20.855469 84.234375 20.789062 84.433594 20.65625 C 84.628906 20.523438 84.726562 20.335938 84.726562 20.09375 C 84.726562 19.558594 84.140625 19.175781 82.976562 18.945312 C 80.804688 18.527344 79.722656 17.507812 79.722656 15.875 C 79.722656 14.960938 80.050781 14.238281 80.707031 13.710938 C 81.371094 13.175781 82.277344 12.90625 83.421875 12.90625 C 84.21875 12.90625 84.910156 13.042969 85.496094 13.316406 C 86.082031 13.585938 86.535156 13.964844 86.851562 14.457031 C 87.171875 14.949219 87.332031 15.53125 87.332031 16.199219 L 84.695312 16.199219 C 84.695312 15.828125 84.589844 15.546875 84.378906 15.351562 C 84.167969 15.15625 83.867188 15.058594 83.476562 15.058594 C 83.152344 15.058594 82.890625 15.125 82.699219 15.257812 C 82.507812 15.394531 82.414062 15.582031 82.414062 15.820312 C 82.414062 16.074219 82.539062 16.28125 82.796875 16.445312 C 83.054688 16.613281 83.492188 16.761719 84.117188 16.902344 C 85.296875 17.164062 86.160156 17.542969 86.699219 18.035156 C 87.238281 18.527344 87.507812 19.175781 87.507812 19.976562 C 87.507812 20.933594 87.171875 21.679688 86.5 22.222656 C 85.824219 22.761719 84.882812 23.03125 83.667969 23.03125 Z M 83.667969 23.03125 " fill-opacity="1" fill-rule="nonzero"/><path fill="#777777" d="M 94.84375 22.824219 L 94.84375 19.175781 L 91.84375 19.175781 L 91.84375 22.824219 L 89.046875 22.824219 L 89.046875 13.117188 L 91.84375 13.117188 L 91.84375 16.601562 L 94.84375 16.601562 L 94.84375 13.117188 L 97.640625 13.117188 L 97.640625 22.824219 Z M 94.84375 22.824219 " fill-opacity="1" fill-rule="nonzero"/><path fill="#777777" d="M 104.410156 23.03125 C 103.632812 23.03125 102.925781 22.910156 102.285156 22.667969 C 101.640625 22.421875 101.082031 22.074219 100.609375 21.621094 C 100.140625 21.164062 99.777344 20.625 99.515625 20.007812 C 99.257812 19.390625 99.128906 18.714844 99.128906 17.972656 C 99.128906 17.234375 99.257812 16.554688 99.515625 15.9375 C 99.777344 15.316406 100.140625 14.777344 100.609375 14.328125 C 101.082031 13.875 101.640625 13.523438 102.285156 13.277344 C 102.925781 13.03125 103.632812 12.90625 104.410156 12.90625 C 105.1875 12.90625 105.894531 13.03125 106.539062 13.277344 C 107.179688 13.523438 107.738281 13.875 108.210938 14.328125 C 108.683594 14.777344 109.046875 15.316406 109.308594 15.9375 C 109.5625 16.554688 109.691406 17.234375 109.691406 17.972656 C 109.691406 18.714844 109.5625 19.390625 109.308594 20.007812 C 109.046875 20.625 108.683594 21.164062 108.210938 21.621094 C 107.738281 22.074219 107.179688 22.421875 106.539062 22.667969 C 105.894531 22.910156 105.1875 23.03125 104.410156 23.03125 Z M 101.976562 17.972656 C 101.976562 18.449219 102.078125 18.878906 102.285156 19.253906 C 102.492188 19.628906 102.78125 19.921875 103.148438 20.132812 C 103.515625 20.339844 103.9375 20.441406 104.410156 20.441406 C 104.894531 20.441406 105.316406 20.339844 105.683594 20.132812 C 106.046875 19.921875 106.332031 19.628906 106.539062 19.253906 C 106.75 18.878906 106.855469 18.449219 106.855469 17.972656 C 106.855469 17.480469 106.75 17.050781 106.539062 16.683594 C 106.332031 16.316406 106.046875 16.027344 105.683594 15.820312 C 105.316406 15.613281 104.894531 15.507812 104.410156 15.507812 C 103.9375 15.507812 103.515625 15.613281 103.148438 15.820312 C 102.78125 16.027344 102.492188 16.316406 102.285156 16.683594 C 102.078125 17.050781 101.976562 17.480469 101.976562 17.972656 Z M 101.976562 17.972656 " fill-opacity="1" fill-rule="nonzero"/><path fill="#777777" d="M 111.199219 22.824219 L 111.199219 13.117188 L 115.285156 13.117188 C 116.105469 13.117188 116.820312 13.265625 117.425781 13.5625 C 118.03125 13.855469 118.5 14.277344 118.832031 14.828125 C 119.160156 15.371094 119.324219 16.019531 119.324219 16.761719 C 119.324219 17.503906 119.160156 18.148438 118.832031 18.699219 C 118.5 19.25 118.03125 19.675781 117.425781 19.976562 C 116.820312 20.277344 116.105469 20.425781 115.285156 20.425781 L 113.996094 20.425781 L 113.996094 22.824219 Z M 113.972656 18.082031 L 115.023438 18.082031 C 115.484375 18.082031 115.84375 17.964844 116.101562 17.734375 C 116.363281 17.503906 116.496094 17.183594 116.496094 16.777344 C 116.496094 16.375 116.363281 16.054688 116.101562 15.820312 C 115.84375 15.589844 115.484375 15.476562 115.023438 15.476562 L 113.972656 15.476562 Z M 113.972656 18.082031 " fill-opacity="1" fill-rule="nonzero"/></svg>