<svg style="transform: scale(1.5)" xmlns="http://www.w3.org/2000/svg" xmlns:xlink="http://www.w3.org/1999/xlink" width="125" zoomAndPan="magnify" viewBox="0 0 93.75 93.749996" height="125" preserveAspectRatio="xMidYMid meet" version="1.0"><defs><g/><clipPath id="f135d93d68"><path d="M 0 0 L 93.5 0 L 93.5 93.5 L 0 93.5 Z M 0 0 " clip-rule="nonzero"/></clipPath><clipPath id="5304d3d295"><path d="M 19.144531 18 L 74.496094 18 L 74.496094 76 L 19.144531 76 Z M 19.144531 18 " clip-rule="nonzero"/></clipPath></defs><g clip-path="url(#f135d93d68)"><path fill="#ffffff" d="M 0 0 L 93.5 0 L 93.5 93.5 L 0 93.5 Z M 0 0 " fill-opacity="1" fill-rule="nonzero"/><path fill="#ffffff" d="M 0 0 L 93.5 0 L 93.5 93.5 L 0 93.5 Z M 0 0 " fill-opacity="1" fill-rule="nonzero"/></g><g clip-path="url(#5304d3d295)"><path fill="#3d3b3a" d="M 39.808594 19.121094 C 40.703125 18.894531 41.609375 18.714844 42.519531 18.578125 C 43.433594 18.441406 44.351562 18.351562 45.269531 18.300781 C 46.191406 18.253906 47.113281 18.253906 48.035156 18.292969 C 48.957031 18.335938 49.875 18.421875 50.789062 18.554688 C 51.703125 18.6875 52.605469 18.863281 53.503906 19.082031 C 54.398438 19.300781 55.28125 19.5625 56.152344 19.867188 C 57.023438 20.171875 57.878906 20.519531 58.714844 20.910156 C 59.554688 21.296875 60.367188 21.726562 61.164062 22.191406 C 61.960938 22.660156 62.730469 23.164062 63.476562 23.707031 C 64.222656 24.25 64.941406 24.828125 65.632812 25.441406 C 66.320312 26.054688 66.980469 26.699219 67.609375 27.375 C 68.234375 28.050781 68.828125 28.757812 69.386719 29.492188 C 69.945312 30.222656 70.46875 30.984375 70.953125 31.769531 C 71.4375 32.554688 71.882812 33.359375 72.292969 34.1875 C 72.699219 35.015625 73.0625 35.863281 73.386719 36.726562 C 73.710938 37.589844 73.992188 38.46875 74.234375 39.359375 C 74.277344 39.523438 74.320312 39.691406 74.363281 39.863281 L 73.925781 40.015625 C 73.882812 39.835938 73.835938 39.65625 73.789062 39.476562 C 73.550781 38.59375 73.273438 37.726562 72.949219 36.871094 C 72.628906 36.011719 72.265625 35.175781 71.863281 34.355469 C 71.457031 33.535156 71.015625 32.734375 70.53125 31.957031 C 70.050781 31.179688 69.53125 30.429688 68.976562 29.703125 C 68.417969 28.976562 67.828125 28.28125 67.207031 27.613281 C 66.582031 26.941406 65.925781 26.308594 65.238281 25.703125 C 64.550781 25.097656 63.835938 24.527344 63.09375 23.996094 C 62.351562 23.460938 61.585938 22.964844 60.796875 22.503906 C 60.003906 22.046875 59.191406 21.628906 58.359375 21.246094 C 57.527344 20.867188 56.679688 20.53125 55.8125 20.234375 C 54.949219 19.9375 54.070312 19.683594 53.179688 19.472656 C 52.292969 19.261719 51.394531 19.097656 50.488281 18.976562 C 49.582031 18.851562 48.671875 18.773438 47.757812 18.742188 C 46.84375 18.707031 45.929688 18.71875 45.015625 18.777344 C 44.101562 18.832031 43.195312 18.933594 42.292969 19.078125 C 41.390625 19.222656 40.496094 19.414062 39.613281 19.644531 C 39.679688 19.472656 39.746094 19.300781 39.808594 19.121094 Z M 19.578125 53.535156 C 19.617188 53.683594 19.652344 53.828125 19.691406 53.972656 C 19.929688 54.859375 20.210938 55.730469 20.53125 56.589844 C 20.855469 57.449219 21.21875 58.289062 21.625 59.109375 C 22.03125 59.933594 22.476562 60.734375 22.960938 61.511719 C 23.445312 62.289062 23.964844 63.042969 24.523438 63.769531 C 25.082031 64.5 25.671875 65.195312 26.300781 65.867188 C 26.925781 66.535156 27.585938 67.171875 28.273438 67.777344 C 28.964844 68.382812 29.679688 68.949219 30.425781 69.484375 C 31.171875 70.019531 31.941406 70.515625 32.734375 70.972656 C 33.527344 71.433594 34.34375 71.851562 35.175781 72.230469 C 36.011719 72.609375 36.863281 72.945312 37.730469 73.242188 C 38.601562 73.535156 39.480469 73.789062 40.375 73.996094 C 41.265625 74.203125 42.167969 74.367188 43.078125 74.488281 C 43.984375 74.609375 44.898438 74.683594 45.816406 74.714844 C 46.730469 74.746094 47.648438 74.730469 48.5625 74.671875 C 49.476562 74.609375 50.386719 74.507812 51.289062 74.359375 C 52.195312 74.207031 53.089844 74.015625 53.976562 73.777344 C 53.90625 73.953125 53.835938 74.128906 53.773438 74.304688 C 52.875 74.535156 51.96875 74.71875 51.054688 74.859375 C 50.140625 74.996094 49.222656 75.09375 48.300781 75.144531 C 47.375 75.195312 46.453125 75.199219 45.527344 75.160156 C 44.605469 75.121094 43.683594 75.035156 42.769531 74.90625 C 41.851562 74.777344 40.945312 74.605469 40.046875 74.386719 C 39.148438 74.167969 38.261719 73.910156 37.386719 73.605469 C 36.515625 73.300781 35.65625 72.953125 34.816406 72.566406 C 33.976562 72.179688 33.160156 71.753906 32.363281 71.285156 C 31.5625 70.816406 30.789062 70.3125 30.039062 69.769531 C 29.292969 69.226562 28.570312 68.648438 27.878906 68.035156 C 27.1875 67.421875 26.523438 66.777344 25.894531 66.101562 C 25.265625 65.425781 24.671875 64.71875 24.109375 63.980469 C 23.546875 63.246094 23.023438 62.484375 22.539062 61.699219 C 22.050781 60.914062 21.605469 60.105469 21.195312 59.273438 C 20.789062 58.445312 20.421875 57.597656 20.097656 56.730469 C 19.769531 55.867188 19.488281 54.984375 19.25 54.09375 C 19.210938 53.957031 19.179688 53.824219 19.144531 53.6875 Z M 19.578125 53.535156 " fill-opacity="1" fill-rule="evenodd"/></g><g fill="#000000" fill-opacity="1"><g transform="translate(14.886339, 49.323765)"><g><path d="M 5.34375 -0.5 C 5.1875 -0.375 4.9375 -0.25 4.59375 -0.125 C 4.257812 0 3.894531 0.0625 3.5 0.0625 C 2.875 0.0625 2.328125 -0.0703125 1.859375 -0.34375 C 1.390625 -0.625 1.03125 -0.992188 0.78125 -1.453125 C 0.53125 -1.921875 0.40625 -2.429688 0.40625 -2.984375 C 0.40625 -3.597656 0.53125 -4.144531 0.78125 -4.625 C 1.03125 -5.101562 1.375 -5.472656 1.8125 -5.734375 C 2.257812 -6.003906 2.773438 -6.140625 3.359375 -6.140625 C 3.734375 -6.140625 4.078125 -6.085938 4.390625 -5.984375 C 4.703125 -5.890625 4.976562 -5.769531 5.21875 -5.625 L 4.75 -4.484375 C 4.3125 -4.816406 3.863281 -4.984375 3.40625 -4.984375 C 3.09375 -4.984375 2.800781 -4.894531 2.53125 -4.71875 C 2.269531 -4.550781 2.054688 -4.320312 1.890625 -4.03125 C 1.734375 -3.738281 1.65625 -3.410156 1.65625 -3.046875 C 1.65625 -2.660156 1.726562 -2.316406 1.875 -2.015625 C 2.03125 -1.722656 2.242188 -1.492188 2.515625 -1.328125 C 2.785156 -1.171875 3.109375 -1.09375 3.484375 -1.09375 C 3.773438 -1.09375 4.039062 -1.140625 4.28125 -1.234375 C 4.519531 -1.328125 4.707031 -1.441406 4.84375 -1.578125 Z M 5.34375 -0.5 "/></g></g></g><g fill="#000000" fill-opacity="1"><g transform="translate(27.238706, 49.323765)"><g><path d="M 1.984375 -6.078125 L 1.984375 0 L 0.78125 0 L 0.78125 -6.078125 Z M 1.984375 -6.078125 "/></g></g></g><g fill="#000000" fill-opacity="1"><g transform="translate(36.604056, 49.323765)"><g><path d="M 4.0625 0 L 2.78125 -1.9375 L 1.984375 -1.9375 L 1.984375 0 L 0.78125 0 L 0.78125 -6.078125 L 2.625 -6.078125 C 3.375 -6.078125 3.957031 -5.890625 4.375 -5.515625 C 4.789062 -5.148438 5 -4.65625 5 -4.03125 C 5 -3.65625 4.921875 -3.300781 4.765625 -2.96875 C 4.609375 -2.644531 4.367188 -2.390625 4.046875 -2.203125 L 5.453125 0 Z M 1.984375 -3.078125 L 2.828125 -3.078125 C 3.148438 -3.078125 3.382812 -3.171875 3.53125 -3.359375 C 3.6875 -3.554688 3.765625 -3.765625 3.765625 -3.984375 C 3.765625 -4.203125 3.695312 -4.410156 3.5625 -4.609375 C 3.4375 -4.816406 3.195312 -4.921875 2.84375 -4.921875 L 1.984375 -4.921875 Z M 1.984375 -3.078125 "/></g></g></g><g fill="#000000" fill-opacity="1"><g transform="translate(48.865655, 49.323765)"><g><path d="M 5.34375 -0.5 C 5.1875 -0.375 4.9375 -0.25 4.59375 -0.125 C 4.257812 0 3.894531 0.0625 3.5 0.0625 C 2.875 0.0625 2.328125 -0.0703125 1.859375 -0.34375 C 1.390625 -0.625 1.03125 -0.992188 0.78125 -1.453125 C 0.53125 -1.921875 0.40625 -2.429688 0.40625 -2.984375 C 0.40625 -3.597656 0.53125 -4.144531 0.78125 -4.625 C 1.03125 -5.101562 1.375 -5.472656 1.8125 -5.734375 C 2.257812 -6.003906 2.773438 -6.140625 3.359375 -6.140625 C 3.734375 -6.140625 4.078125 -6.085938 4.390625 -5.984375 C 4.703125 -5.890625 4.976562 -5.769531 5.21875 -5.625 L 4.75 -4.484375 C 4.3125 -4.816406 3.863281 -4.984375 3.40625 -4.984375 C 3.09375 -4.984375 2.800781 -4.894531 2.53125 -4.71875 C 2.269531 -4.550781 2.054688 -4.320312 1.890625 -4.03125 C 1.734375 -3.738281 1.65625 -3.410156 1.65625 -3.046875 C 1.65625 -2.660156 1.726562 -2.316406 1.875 -2.015625 C 2.03125 -1.722656 2.242188 -1.492188 2.515625 -1.328125 C 2.785156 -1.171875 3.109375 -1.09375 3.484375 -1.09375 C 3.773438 -1.09375 4.039062 -1.140625 4.28125 -1.234375 C 4.519531 -1.328125 4.707031 -1.441406 4.84375 -1.578125 Z M 5.34375 -0.5 "/></g></g></g><g fill="#000000" fill-opacity="1"><g transform="translate(61.218024, 49.323765)"><g><path d="M 1.984375 -6.078125 L 1.984375 -1.15625 L 4.828125 -1.15625 L 4.828125 0 L 0.78125 0 L 0.78125 -6.078125 Z M 1.984375 -6.078125 "/></g></g></g><g fill="#000000" fill-opacity="1"><g transform="translate(73.108308, 49.323765)"><g><path d="M 4.921875 -6.078125 L 4.921875 -4.921875 L 1.984375 -4.921875 L 1.984375 -3.625 L 4.59375 -3.625 L 4.59375 -2.46875 L 1.984375 -2.46875 L 1.984375 -1.15625 L 5.046875 -1.15625 L 5.046875 0 L 0.78125 0 L 0.78125 -6.078125 Z M 4.921875 -6.078125 "/></g></g></g><g fill="#000000" fill-opacity="1"><g transform="translate(29.038748, 56.493069)"><g><path d="M 0.28125 -2 L 0.84375 -2 C 1.09375 -2 1.300781 -1.945312 1.46875 -1.84375 C 1.632812 -1.75 1.753906 -1.625 1.828125 -1.46875 C 1.898438 -1.3125 1.9375 -1.144531 1.9375 -0.96875 C 1.9375 -0.78125 1.890625 -0.609375 1.796875 -0.453125 C 1.710938 -0.304688 1.59375 -0.191406 1.4375 -0.109375 C 1.28125 -0.0351562 1.113281 0 0.9375 0 L 0.28125 0 Z M 0.875 -0.3125 C 1.019531 -0.3125 1.144531 -0.335938 1.25 -0.390625 C 1.363281 -0.441406 1.453125 -0.519531 1.515625 -0.625 C 1.578125 -0.726562 1.609375 -0.851562 1.609375 -1 C 1.609375 -1.15625 1.570312 -1.285156 1.5 -1.390625 C 1.4375 -1.492188 1.351562 -1.570312 1.25 -1.625 C 1.144531 -1.675781 1.039062 -1.703125 0.9375 -1.703125 L 0.59375 -1.703125 L 0.59375 -0.3125 Z M 0.875 -0.3125 "/></g></g></g><g fill="#000000" fill-opacity="1"><g transform="translate(32.232061, 56.493069)"><g><path d="M 1.609375 -2 L 1.609375 -1.6875 L 0.59375 -1.6875 L 0.59375 -1.15625 L 1.5 -1.15625 L 1.5 -0.859375 L 0.59375 -0.859375 L 0.59375 -0.3125 L 1.640625 -0.3125 L 1.640625 0 L 0.28125 0 L 0.28125 -2 Z M 1.609375 -2 "/></g></g></g><g fill="#000000" fill-opacity="1"><g transform="translate(35.142074, 56.493069)"><g><path d="M 1.328125 -1.59375 C 1.148438 -1.6875 0.992188 -1.734375 0.859375 -1.734375 C 0.765625 -1.734375 0.6875 -1.707031 0.625 -1.65625 C 0.570312 -1.613281 0.546875 -1.554688 0.546875 -1.484375 C 0.546875 -1.410156 0.582031 -1.347656 0.65625 -1.296875 C 0.726562 -1.242188 0.828125 -1.191406 0.953125 -1.140625 C 1.054688 -1.109375 1.140625 -1.066406 1.203125 -1.015625 C 1.273438 -0.972656 1.332031 -0.910156 1.375 -0.828125 C 1.425781 -0.753906 1.453125 -0.660156 1.453125 -0.546875 C 1.453125 -0.441406 1.425781 -0.34375 1.375 -0.25 C 1.320312 -0.164062 1.242188 -0.0976562 1.140625 -0.046875 C 1.046875 -0.00390625 0.925781 0.015625 0.78125 0.015625 C 0.664062 0.015625 0.546875 0 0.421875 -0.03125 C 0.304688 -0.0703125 0.203125 -0.125 0.109375 -0.1875 L 0.265625 -0.4375 C 0.328125 -0.382812 0.40625 -0.34375 0.5 -0.3125 C 0.59375 -0.28125 0.675781 -0.265625 0.75 -0.265625 C 0.851562 -0.265625 0.941406 -0.285156 1.015625 -0.328125 C 1.085938 -0.378906 1.125 -0.453125 1.125 -0.546875 C 1.125 -0.617188 1.09375 -0.679688 1.03125 -0.734375 C 0.96875 -0.785156 0.878906 -0.832031 0.765625 -0.875 C 0.660156 -0.914062 0.566406 -0.957031 0.484375 -1 C 0.410156 -1.039062 0.347656 -1.097656 0.296875 -1.171875 C 0.242188 -1.253906 0.21875 -1.347656 0.21875 -1.453125 C 0.21875 -1.617188 0.269531 -1.75 0.375 -1.84375 C 0.488281 -1.945312 0.632812 -2.003906 0.8125 -2.015625 C 0.945312 -2.015625 1.0625 -2 1.15625 -1.96875 C 1.257812 -1.9375 1.359375 -1.894531 1.453125 -1.84375 Z M 1.328125 -1.59375 "/></g></g></g><g fill="#000000" fill-opacity="1"><g transform="translate(37.843051, 56.493069)"><g><path d="M 0.59375 -2 L 0.59375 0 L 0.28125 0 L 0.28125 -2 Z M 0.59375 -2 "/></g></g></g><g fill="#000000" fill-opacity="1"><g transform="translate(39.815146, 56.493069)"><g><path d="M 1.875 -0.1875 C 1.8125 -0.132812 1.710938 -0.0859375 1.578125 -0.046875 C 1.441406 -0.00390625 1.316406 0.015625 1.203125 0.015625 C 0.992188 0.015625 0.804688 -0.0234375 0.640625 -0.109375 C 0.484375 -0.191406 0.363281 -0.304688 0.28125 -0.453125 C 0.195312 -0.597656 0.15625 -0.765625 0.15625 -0.953125 C 0.15625 -1.179688 0.195312 -1.375 0.28125 -1.53125 C 0.375 -1.695312 0.5 -1.820312 0.65625 -1.90625 C 0.820312 -1.988281 1 -2.03125 1.1875 -2.03125 C 1.300781 -2.03125 1.40625 -2.015625 1.5 -1.984375 C 1.601562 -1.953125 1.695312 -1.914062 1.78125 -1.875 L 1.671875 -1.578125 C 1.617188 -1.609375 1.546875 -1.632812 1.453125 -1.65625 C 1.367188 -1.6875 1.289062 -1.703125 1.21875 -1.703125 C 0.988281 -1.703125 0.804688 -1.640625 0.671875 -1.515625 C 0.546875 -1.390625 0.484375 -1.210938 0.484375 -0.984375 C 0.484375 -0.847656 0.515625 -0.726562 0.578125 -0.625 C 0.640625 -0.519531 0.722656 -0.4375 0.828125 -0.375 C 0.941406 -0.320312 1.070312 -0.296875 1.21875 -0.296875 C 1.28125 -0.296875 1.335938 -0.300781 1.390625 -0.3125 C 1.453125 -0.320312 1.503906 -0.335938 1.546875 -0.359375 L 1.546875 -0.703125 L 1.171875 -0.703125 L 1.171875 -1 L 1.875 -1 Z M 1.875 -0.1875 "/></g></g></g><g fill="#000000" fill-opacity="1"><g transform="translate(42.994707, 56.493069)"><g><path d="M 2.046875 -2 L 2.046875 0.078125 L 2.03125 0.078125 L 0.59375 -1.328125 L 0.59375 0 L 0.28125 0 L 0.28125 -2.078125 L 0.296875 -2.078125 L 1.734375 -0.65625 L 1.71875 -2 Z M 2.046875 -2 "/></g></g></g><g fill="#000000" fill-opacity="1"><g transform="translate(46.416311, 56.493069)"><g/></g></g><g fill="#000000" fill-opacity="1"><g transform="translate(48.396658, 56.493069)"><g><path d="M 1.328125 -1.59375 C 1.148438 -1.6875 0.992188 -1.734375 0.859375 -1.734375 C 0.765625 -1.734375 0.6875 -1.707031 0.625 -1.65625 C 0.570312 -1.613281 0.546875 -1.554688 0.546875 -1.484375 C 0.546875 -1.410156 0.582031 -1.347656 0.65625 -1.296875 C 0.726562 -1.242188 0.828125 -1.191406 0.953125 -1.140625 C 1.054688 -1.109375 1.140625 -1.066406 1.203125 -1.015625 C 1.273438 -0.972656 1.332031 -0.910156 1.375 -0.828125 C 1.425781 -0.753906 1.453125 -0.660156 1.453125 -0.546875 C 1.453125 -0.441406 1.425781 -0.34375 1.375 -0.25 C 1.320312 -0.164062 1.242188 -0.0976562 1.140625 -0.046875 C 1.046875 -0.00390625 0.925781 0.015625 0.78125 0.015625 C 0.664062 0.015625 0.546875 0 0.421875 -0.03125 C 0.304688 -0.0703125 0.203125 -0.125 0.109375 -0.1875 L 0.265625 -0.4375 C 0.328125 -0.382812 0.40625 -0.34375 0.5 -0.3125 C 0.59375 -0.28125 0.675781 -0.265625 0.75 -0.265625 C 0.851562 -0.265625 0.941406 -0.285156 1.015625 -0.328125 C 1.085938 -0.378906 1.125 -0.453125 1.125 -0.546875 C 1.125 -0.617188 1.09375 -0.679688 1.03125 -0.734375 C 0.96875 -0.785156 0.878906 -0.832031 0.765625 -0.875 C 0.660156 -0.914062 0.566406 -0.957031 0.484375 -1 C 0.410156 -1.039062 0.347656 -1.097656 0.296875 -1.171875 C 0.242188 -1.253906 0.21875 -1.347656 0.21875 -1.453125 C 0.21875 -1.617188 0.269531 -1.75 0.375 -1.84375 C 0.488281 -1.945312 0.632812 -2.003906 0.8125 -2.015625 C 0.945312 -2.015625 1.0625 -2 1.15625 -1.96875 C 1.257812 -1.9375 1.359375 -1.894531 1.453125 -1.84375 Z M 1.328125 -1.59375 "/></g></g></g><g fill="#000000" fill-opacity="1"><g transform="translate(51.097635, 56.493069)"><g><path d="M 1.46875 -2 L 1.46875 -1.6875 L 0.953125 -1.6875 L 0.953125 0 L 0.640625 0 L 0.640625 -1.6875 L 0.125 -1.6875 L 0.125 -2 Z M 1.46875 -2 "/></g></g></g><g fill="#000000" fill-opacity="1"><g transform="translate(53.801361, 56.493069)"><g><path d="M 0.5625 -0.71875 C 0.5625 -0.644531 0.582031 -0.570312 0.625 -0.5 C 0.664062 -0.4375 0.71875 -0.382812 0.78125 -0.34375 C 0.851562 -0.300781 0.929688 -0.28125 1.015625 -0.28125 C 1.097656 -0.28125 1.175781 -0.300781 1.25 -0.34375 C 1.320312 -0.382812 1.378906 -0.4375 1.421875 -0.5 C 1.460938 -0.570312 1.484375 -0.644531 1.484375 -0.71875 L 1.484375 -2 L 1.796875 -2 L 1.796875 -0.71875 C 1.796875 -0.570312 1.757812 -0.441406 1.6875 -0.328125 C 1.625 -0.222656 1.53125 -0.140625 1.40625 -0.078125 C 1.289062 -0.015625 1.160156 0.015625 1.015625 0.015625 C 0.867188 0.015625 0.738281 -0.015625 0.625 -0.078125 C 0.507812 -0.140625 0.414062 -0.222656 0.34375 -0.328125 C 0.28125 -0.441406 0.25 -0.570312 0.25 -0.71875 L 0.25 -2 L 0.5625 -2 Z M 0.5625 -0.71875 "/></g></g></g><g fill="#000000" fill-opacity="1"><g transform="translate(56.939664, 56.493069)"><g><path d="M 0.28125 -2 L 0.84375 -2 C 1.09375 -2 1.300781 -1.945312 1.46875 -1.84375 C 1.632812 -1.75 1.753906 -1.625 1.828125 -1.46875 C 1.898438 -1.3125 1.9375 -1.144531 1.9375 -0.96875 C 1.9375 -0.78125 1.890625 -0.609375 1.796875 -0.453125 C 1.710938 -0.304688 1.59375 -0.191406 1.4375 -0.109375 C 1.28125 -0.0351562 1.113281 0 0.9375 0 L 0.28125 0 Z M 0.875 -0.3125 C 1.019531 -0.3125 1.144531 -0.335938 1.25 -0.390625 C 1.363281 -0.441406 1.453125 -0.519531 1.515625 -0.625 C 1.578125 -0.726562 1.609375 -0.851562 1.609375 -1 C 1.609375 -1.15625 1.570312 -1.285156 1.5 -1.390625 C 1.4375 -1.492188 1.351562 -1.570312 1.25 -1.625 C 1.144531 -1.675781 1.039062 -1.703125 0.9375 -1.703125 L 0.59375 -1.703125 L 0.59375 -0.3125 Z M 0.875 -0.3125 "/></g></g></g><g fill="#000000" fill-opacity="1"><g transform="translate(60.132978, 56.493069)"><g><path d="M 0.59375 -2 L 0.59375 0 L 0.28125 0 L 0.28125 -2 Z M 0.59375 -2 "/></g></g></g><g fill="#000000" fill-opacity="1"><g transform="translate(62.105075, 56.493069)"><g><path d="M 0.15625 -1 C 0.15625 -1.175781 0.195312 -1.34375 0.28125 -1.5 C 0.375 -1.664062 0.5 -1.796875 0.65625 -1.890625 C 0.8125 -1.984375 0.984375 -2.03125 1.171875 -2.03125 C 1.359375 -2.03125 1.53125 -1.984375 1.6875 -1.890625 C 1.84375 -1.796875 1.96875 -1.664062 2.0625 -1.5 C 2.15625 -1.34375 2.203125 -1.175781 2.203125 -1 C 2.203125 -0.8125 2.15625 -0.640625 2.0625 -0.484375 C 1.96875 -0.328125 1.84375 -0.203125 1.6875 -0.109375 C 1.53125 -0.0234375 1.359375 0.015625 1.171875 0.015625 C 0.984375 0.015625 0.8125 -0.0234375 0.65625 -0.109375 C 0.5 -0.203125 0.375 -0.328125 0.28125 -0.484375 C 0.195312 -0.640625 0.15625 -0.8125 0.15625 -1 Z M 0.484375 -1 C 0.484375 -0.863281 0.515625 -0.742188 0.578125 -0.640625 C 0.640625 -0.535156 0.722656 -0.445312 0.828125 -0.375 C 0.929688 -0.3125 1.050781 -0.28125 1.1875 -0.28125 C 1.3125 -0.28125 1.425781 -0.3125 1.53125 -0.375 C 1.632812 -0.4375 1.71875 -0.519531 1.78125 -0.625 C 1.84375 -0.738281 1.875 -0.863281 1.875 -1 C 1.875 -1.125 1.84375 -1.242188 1.78125 -1.359375 C 1.71875 -1.472656 1.628906 -1.5625 1.515625 -1.625 C 1.410156 -1.6875 1.296875 -1.71875 1.171875 -1.71875 C 1.046875 -1.71875 0.929688 -1.6875 0.828125 -1.625 C 0.722656 -1.5625 0.640625 -1.472656 0.578125 -1.359375 C 0.515625 -1.242188 0.484375 -1.125 0.484375 -1 Z M 0.484375 -1 "/></g></g></g><g fill="#3d3b3a" fill-opacity="1"><g transform="translate(41.814814, 45.91438)"><g><path d="M 13.640625 -14.34375 C 13.828125 -14.238281 13.773438 -14.113281 13.484375 -13.96875 L 13.1875 -13.859375 C 13.164062 -13.835938 13.125 -13.859375 13.0625 -13.921875 C 13.019531 -13.972656 13.019531 -14.019531 13.0625 -14.0625 C 13.101562 -14.125 13.113281 -14.160156 13.09375 -14.171875 C 13.070312 -14.179688 12.984375 -14.1875 12.828125 -14.1875 C 12.742188 -14.207031 12.640625 -14.222656 12.515625 -14.234375 C 12.398438 -14.242188 12.289062 -14.257812 12.1875 -14.28125 C 12.050781 -14.300781 11.710938 -14.328125 11.171875 -14.359375 C 10.640625 -14.390625 10.023438 -14.410156 9.328125 -14.421875 C 8.628906 -14.441406 7.945312 -14.460938 7.28125 -14.484375 C 6.625 -14.503906 6.070312 -14.515625 5.625 -14.515625 L 5.5 -14.515625 C 5.457031 -14.515625 5.390625 -14.519531 5.296875 -14.53125 C 5.210938 -14.539062 5.109375 -14.535156 4.984375 -14.515625 L 4.84375 -14.421875 C 4.820312 -14.390625 4.785156 -14.351562 4.734375 -14.3125 C 4.679688 -14.269531 4.632812 -14.21875 4.59375 -14.15625 L 4.328125 -13.890625 C 4.242188 -13.765625 4.140625 -13.644531 4.015625 -13.53125 C 3.898438 -13.425781 3.757812 -13.28125 3.59375 -13.09375 L 3.078125 -12.546875 C 2.960938 -12.390625 2.851562 -12.257812 2.75 -12.15625 C 2.707031 -12.113281 2.640625 -12.039062 2.546875 -11.9375 C 2.460938 -11.84375 2.367188 -11.742188 2.265625 -11.640625 C 2.003906 -11.335938 1.800781 -11.097656 1.65625 -10.921875 C 1.519531 -10.753906 1.378906 -10.59375 1.234375 -10.4375 L 0.875 -10.046875 L 0.609375 -9.703125 L -0.21875 -8.796875 L -1.203125 -7.65625 L -1.6875 -7.078125 C -2.007812 -6.710938 -2.375 -6.273438 -2.78125 -5.765625 C -3.1875 -5.265625 -3.566406 -4.773438 -3.921875 -4.296875 C -4.273438 -3.828125 -4.550781 -3.453125 -4.75 -3.171875 C -4.851562 -3.015625 -4.953125 -2.828125 -5.046875 -2.609375 C -5.148438 -2.398438 -5.210938 -2.253906 -5.234375 -2.171875 C -5.234375 -2.078125 -5.191406 -2.03125 -5.109375 -2.03125 C -5.023438 -2.007812 -5.003906 -1.96875 -5.046875 -1.90625 C -5.066406 -1.863281 -5.140625 -1.84375 -5.265625 -1.84375 C -5.347656 -1.863281 -5.40625 -1.945312 -5.4375 -2.09375 C -5.457031 -2.207031 -5.421875 -2.394531 -5.328125 -2.65625 C -5.285156 -2.757812 -5.25 -2.851562 -5.21875 -2.9375 C -5.1875 -3.019531 -5.171875 -3.050781 -5.171875 -3.03125 C -5.148438 -3.03125 -5.140625 -3.054688 -5.140625 -3.109375 C -5.140625 -3.109375 -5.132812 -3.113281 -5.125 -3.125 C -5.113281 -3.132812 -5.109375 -3.148438 -5.109375 -3.171875 C -5.066406 -3.148438 -5.035156 -3.179688 -5.015625 -3.265625 C -4.992188 -3.304688 -4.984375 -3.359375 -4.984375 -3.421875 L -4.984375 -3.484375 C -4.953125 -3.460938 -4.773438 -3.671875 -4.453125 -4.109375 L -3.203125 -5.78125 L -2.453125 -6.71875 C -2.285156 -6.914062 -2.132812 -7.09375 -2 -7.25 C -1.875 -7.414062 -1.800781 -7.507812 -1.78125 -7.53125 C -1.738281 -7.550781 -1.679688 -7.597656 -1.609375 -7.671875 C -1.546875 -7.753906 -1.472656 -7.847656 -1.390625 -7.953125 C -1.148438 -8.273438 -0.976562 -8.488281 -0.875 -8.59375 C -0.769531 -8.707031 -0.710938 -8.765625 -0.703125 -8.765625 C -0.679688 -8.765625 -0.640625 -8.816406 -0.578125 -8.921875 L -0.328125 -9.21875 L -0.09375 -9.5 C 0.226562 -9.882812 0.457031 -10.15625 0.59375 -10.3125 C 0.738281 -10.476562 0.851562 -10.597656 0.9375 -10.671875 C 1.101562 -10.835938 1.1875 -10.929688 1.1875 -10.953125 C 1.1875 -10.929688 1.265625 -11.015625 1.421875 -11.203125 C 1.578125 -11.398438 1.65625 -11.5 1.65625 -11.5 C 1.757812 -11.632812 1.941406 -11.851562 2.203125 -12.15625 C 2.460938 -12.457031 2.738281 -12.769531 3.03125 -13.09375 C 3.332031 -13.414062 3.550781 -13.648438 3.6875 -13.796875 L 4.046875 -14.1875 L 4.140625 -14.3125 L 4.234375 -14.375 C 4.253906 -14.40625 4.273438 -14.429688 4.296875 -14.453125 C 4.316406 -14.472656 4.335938 -14.492188 4.359375 -14.515625 C 4.035156 -14.515625 3.660156 -14.515625 3.234375 -14.515625 C 2.804688 -14.515625 2.523438 -14.503906 2.390625 -14.484375 L 1.390625 -14.421875 L 0.578125 -14.40625 L -0.1875 -14.34375 C -0.539062 -14.320312 -0.875 -14.296875 -1.1875 -14.265625 C -1.5 -14.234375 -1.675781 -14.207031 -1.71875 -14.1875 C -1.925781 -14.144531 -2.148438 -14.113281 -2.390625 -14.09375 C -2.628906 -14.070312 -2.757812 -14.070312 -2.78125 -14.09375 C -2.882812 -14.195312 -2.796875 -14.289062 -2.515625 -14.375 C -2.429688 -14.394531 -2.242188 -14.414062 -1.953125 -14.4375 C -1.660156 -14.46875 -1.351562 -14.5 -1.03125 -14.53125 C -0.707031 -14.5625 -0.460938 -14.578125 -0.296875 -14.578125 L 0.359375 -14.640625 L 4.625 -14.734375 L 4.75 -14.859375 L 4.984375 -15.125 L 5.078125 -15.21875 C 5.117188 -15.257812 5.210938 -15.34375 5.359375 -15.46875 C 5.515625 -15.601562 5.660156 -15.738281 5.796875 -15.875 C 5.941406 -16.019531 6.023438 -16.101562 6.046875 -16.125 C 6.066406 -16.164062 6.21875 -16.296875 6.5 -16.515625 L 6.78125 -16.765625 C 6.800781 -16.796875 6.875 -16.863281 7 -16.96875 C 7.132812 -17.070312 7.210938 -17.125 7.234375 -17.125 C 7.296875 -17.125 7.332031 -17.09375 7.34375 -17.03125 C 7.382812 -16.945312 7.378906 -16.875 7.328125 -16.8125 L 7.203125 -16.671875 L 6.890625 -16.421875 C 6.796875 -16.347656 6.660156 -16.226562 6.484375 -16.0625 C 6.316406 -15.90625 6.203125 -15.785156 6.140625 -15.703125 C 6.015625 -15.554688 5.894531 -15.4375 5.78125 -15.34375 C 5.695312 -15.257812 5.59375 -15.15625 5.46875 -15.03125 C 5.351562 -14.914062 5.273438 -14.828125 5.234375 -14.765625 L 5.8125 -14.765625 L 6.65625 -14.734375 C 6.789062 -14.734375 7.140625 -14.722656 7.703125 -14.703125 C 8.273438 -14.679688 8.90625 -14.65625 9.59375 -14.625 C 10.28125 -14.59375 10.90625 -14.566406 11.46875 -14.546875 C 12.03125 -14.523438 12.390625 -14.503906 12.546875 -14.484375 C 12.890625 -14.460938 13.132812 -14.441406 13.28125 -14.421875 C 13.4375 -14.410156 13.554688 -14.382812 13.640625 -14.34375 Z M 13.640625 -14.34375 "/></g></g></g><g fill="#3d3b3a" fill-opacity="1"><g transform="translate(44.900718, 45.91438)"><g><path d="M 10.890625 -16.640625 C 11.015625 -16.492188 10.992188 -16.3125 10.828125 -16.09375 C 10.765625 -15.988281 10.65625 -15.851562 10.5 -15.6875 C 10.351562 -15.53125 10.238281 -15.429688 10.15625 -15.390625 L 9.703125 -15.0625 C 9.628906 -14.976562 9.523438 -14.894531 9.390625 -14.8125 C 9.265625 -14.738281 9.160156 -14.671875 9.078125 -14.609375 L 8.625 -14.34375 C 8.5 -14.257812 8.40625 -14.21875 8.34375 -14.21875 C 8.269531 -14.175781 8.222656 -14.144531 8.203125 -14.125 C 8.203125 -14.082031 8.148438 -14.039062 8.046875 -14 L 7.859375 -13.9375 C 7.742188 -13.882812 7.539062 -13.78125 7.25 -13.625 C 6.957031 -13.476562 6.648438 -13.328125 6.328125 -13.171875 C 6.003906 -13.023438 5.726562 -12.898438 5.5 -12.796875 C 5.34375 -12.710938 5.234375 -12.671875 5.171875 -12.671875 C 5.109375 -12.671875 4.9375 -12.601562 4.65625 -12.46875 L 4.140625 -12.25 C 4.117188 -12.226562 4.046875 -12.195312 3.921875 -12.15625 C 3.804688 -12.113281 3.648438 -12.046875 3.453125 -11.953125 L 2.296875 -11.4375 L 2.140625 -11.34375 L 1.640625 -10.828125 C 1.347656 -10.546875 1.035156 -10.238281 0.703125 -9.90625 C 0.378906 -9.570312 0.195312 -9.363281 0.15625 -9.28125 L 0.15625 -9.21875 C 0.175781 -9.207031 0.222656 -9.21875 0.296875 -9.25 C 0.316406 -9.25 0.328125 -9.253906 0.328125 -9.265625 C 0.328125 -9.273438 0.335938 -9.28125 0.359375 -9.28125 C 0.484375 -9.34375 0.617188 -9.40625 0.765625 -9.46875 C 0.921875 -9.53125 1.117188 -9.601562 1.359375 -9.6875 C 1.679688 -9.78125 1.875 -9.785156 1.9375 -9.703125 C 1.957031 -9.671875 1.914062 -9.59375 1.8125 -9.46875 C 1.53125 -9.1875 1.359375 -8.984375 1.296875 -8.859375 L 1.265625 -8.765625 C 1.171875 -8.566406 1.144531 -8.46875 1.1875 -8.46875 L 1.234375 -8.46875 L 1.359375 -8.5 C 1.523438 -8.5625 1.804688 -8.679688 2.203125 -8.859375 C 2.609375 -9.046875 2.910156 -9.175781 3.109375 -9.25 L 3.875 -9.59375 C 3.9375 -9.59375 3.992188 -9.585938 4.046875 -9.578125 C 4.109375 -9.566406 4.070312 -9.507812 3.9375 -9.40625 C 3.75 -9.34375 3.648438 -9.304688 3.640625 -9.296875 C 3.628906 -9.285156 3.617188 -9.273438 3.609375 -9.265625 C 3.597656 -9.253906 3.484375 -9.203125 3.265625 -9.109375 C 3.179688 -9.085938 3.113281 -9.050781 3.0625 -9 C 3.019531 -8.945312 2.976562 -8.921875 2.9375 -8.921875 C 2.726562 -8.835938 2.609375 -8.78125 2.578125 -8.75 C 2.554688 -8.726562 2.492188 -8.695312 2.390625 -8.65625 C 2.328125 -8.632812 2.144531 -8.554688 1.84375 -8.421875 C 1.539062 -8.296875 1.328125 -8.222656 1.203125 -8.203125 L 1.15625 -8.171875 C 1.09375 -8.148438 1.007812 -8.171875 0.90625 -8.234375 C 0.78125 -8.328125 0.769531 -8.5 0.875 -8.75 L 0.96875 -8.921875 C 1.007812 -9.023438 1.066406 -9.125 1.140625 -9.21875 C 1.222656 -9.320312 1.273438 -9.375 1.296875 -9.375 C 1.316406 -9.375 1.328125 -9.382812 1.328125 -9.40625 C 1.328125 -9.425781 1.28125 -9.414062 1.1875 -9.375 L 0.84375 -9.25 C 0.6875 -9.21875 0.578125 -9.171875 0.515625 -9.109375 L 0.328125 -8.984375 L 0.296875 -8.984375 L 0.125 -8.890625 L -0.234375 -8.53125 L -0.296875 -8.5 L -0.390625 -8.4375 L -0.484375 -8.34375 L -0.640625 -8.234375 L -0.71875 -8.171875 C -0.757812 -8.128906 -0.8125 -8.117188 -0.875 -8.140625 C -0.894531 -8.160156 -0.929688 -8.1875 -0.984375 -8.21875 C -1.035156 -8.25 -1.0625 -8.28125 -1.0625 -8.3125 C -1.0625 -8.375 -1.035156 -8.4375 -0.984375 -8.5 C -0.929688 -8.5625 -0.882812 -8.613281 -0.84375 -8.65625 L -0.578125 -8.953125 L -0.296875 -9.28125 L -0.1875 -9.40625 L 0.875 -10.53125 C 1.039062 -10.664062 1.164062 -10.785156 1.25 -10.890625 C 1.34375 -10.992188 1.390625 -11.046875 1.390625 -11.046875 C 1.367188 -11.066406 1.320312 -11.066406 1.25 -11.046875 C 1.1875 -11.023438 1.15625 -11.003906 1.15625 -10.984375 C 1.132812 -10.960938 1.109375 -10.953125 1.078125 -10.953125 C 1.046875 -10.953125 1.019531 -10.941406 1 -10.921875 L 0.453125 -10.734375 C 0.296875 -10.691406 0.1875 -10.65625 0.125 -10.625 L -0.1875 -10.46875 C -0.34375 -10.425781 -0.441406 -10.40625 -0.484375 -10.40625 C -0.609375 -10.40625 -0.640625 -10.46875 -0.578125 -10.59375 C -0.535156 -10.625 -0.453125 -10.660156 -0.328125 -10.703125 L 0.609375 -11.046875 L 0.90625 -11.15625 C 0.945312 -11.195312 1.007812 -11.226562 1.09375 -11.25 C 1.207031 -11.3125 1.285156 -11.34375 1.328125 -11.34375 C 1.347656 -11.34375 1.363281 -11.347656 1.375 -11.359375 C 1.382812 -11.367188 1.390625 -11.375 1.390625 -11.375 C 1.390625 -11.375 1.476562 -11.414062 1.65625 -11.5 L 1.9375 -11.578125 C 1.976562 -11.617188 2.035156 -11.675781 2.109375 -11.75 C 2.191406 -11.820312 2.273438 -11.898438 2.359375 -11.984375 L 3.390625 -12.890625 L 4.015625 -13.4375 L 4.984375 -14.1875 C 5.003906 -14.207031 5.097656 -14.273438 5.265625 -14.390625 C 5.441406 -14.515625 5.625 -14.640625 5.8125 -14.765625 L 6.328125 -15.09375 L 6.59375 -15.28125 L 6.921875 -15.453125 C 7.628906 -15.859375 8.335938 -16.160156 9.046875 -16.359375 L 9.28125 -16.421875 C 9.445312 -16.503906 9.648438 -16.566406 9.890625 -16.609375 L 10.21875 -16.671875 C 10.382812 -16.710938 10.53125 -16.726562 10.65625 -16.71875 C 10.789062 -16.707031 10.867188 -16.679688 10.890625 -16.640625 Z M 10.59375 -16.1875 C 10.59375 -16.1875 10.597656 -16.195312 10.609375 -16.21875 C 10.617188 -16.238281 10.625 -16.257812 10.625 -16.28125 C 10.601562 -16.332031 10.5625 -16.367188 10.5 -16.390625 C 10.457031 -16.410156 10.335938 -16.410156 10.140625 -16.390625 C 9.953125 -16.367188 9.835938 -16.347656 9.796875 -16.328125 L 9.3125 -16.1875 C 9.050781 -16.101562 8.738281 -15.992188 8.375 -15.859375 C 8.007812 -15.734375 7.6875 -15.597656 7.40625 -15.453125 C 7.03125 -15.253906 6.628906 -15.019531 6.203125 -14.75 C 5.773438 -14.476562 5.453125 -14.25 5.234375 -14.0625 L 4.984375 -13.890625 C 4.972656 -13.890625 4.859375 -13.800781 4.640625 -13.625 C 4.429688 -13.457031 4.191406 -13.253906 3.921875 -13.015625 C 3.648438 -12.785156 3.410156 -12.582031 3.203125 -12.40625 L 2.84375 -12.09375 C 2.820312 -12.09375 2.8125 -12.066406 2.8125 -12.015625 C 2.8125 -11.992188 2.910156 -12.019531 3.109375 -12.09375 C 3.210938 -12.132812 3.296875 -12.175781 3.359375 -12.21875 C 3.421875 -12.257812 3.460938 -12.28125 3.484375 -12.28125 C 3.523438 -12.28125 3.625 -12.320312 3.78125 -12.40625 C 3.863281 -12.445312 3.925781 -12.476562 3.96875 -12.5 C 4.019531 -12.519531 4.054688 -12.53125 4.078125 -12.53125 C 4.097656 -12.53125 4.210938 -12.566406 4.421875 -12.640625 L 5.078125 -12.921875 L 5.6875 -13.1875 L 6.109375 -13.34375 C 6.148438 -13.363281 6.21875 -13.390625 6.3125 -13.421875 C 6.414062 -13.460938 6.507812 -13.515625 6.59375 -13.578125 L 7.171875 -13.859375 L 7.5 -14.03125 L 7.859375 -14.21875 L 8.890625 -14.796875 C 9.097656 -14.910156 9.300781 -15.035156 9.5 -15.171875 C 9.695312 -15.316406 9.835938 -15.429688 9.921875 -15.515625 L 10.21875 -15.765625 C 10.238281 -15.765625 10.300781 -15.832031 10.40625 -15.96875 Z M 10.59375 -16.1875 "/></g></g></g><g fill="#3d3b3a" fill-opacity="1"><g transform="translate(49.257283, 45.91438)"><g><path d="M -0.296875 -8.265625 C -0.546875 -8.242188 -0.695312 -8.238281 -0.75 -8.25 C -0.8125 -8.257812 -0.851562 -8.3125 -0.875 -8.40625 C -0.914062 -8.507812 -0.875 -8.660156 -0.75 -8.859375 C -0.59375 -9.097656 -0.363281 -9.335938 -0.0625 -9.578125 C 0.238281 -9.828125 0.539062 -10.003906 0.84375 -10.109375 C 1.332031 -10.285156 1.601562 -10.296875 1.65625 -10.140625 C 1.675781 -10.054688 1.457031 -9.851562 1 -9.53125 C 0.738281 -9.34375 0.519531 -9.203125 0.34375 -9.109375 C 0.175781 -9.023438 0.0078125 -8.960938 -0.15625 -8.921875 C -0.332031 -8.878906 -0.441406 -8.8125 -0.484375 -8.71875 C -0.566406 -8.632812 -0.578125 -8.582031 -0.515625 -8.5625 C -0.328125 -8.5 0.617188 -8.84375 2.328125 -9.59375 L 2.390625 -9.625 L 2.484375 -9.625 L 2.515625 -9.59375 C 2.585938 -9.550781 2.597656 -9.5 2.546875 -9.4375 L 2.140625 -9.25 L 0.78125 -8.65625 C 0.519531 -8.507812 0.3125 -8.414062 0.15625 -8.375 C 0.0078125 -8.332031 -0.140625 -8.296875 -0.296875 -8.265625 Z M -0.0625 -9.25 C -0.0820312 -9.226562 -0.046875 -9.234375 0.046875 -9.265625 C 0.140625 -9.296875 0.265625 -9.351562 0.421875 -9.4375 C 0.566406 -9.519531 0.722656 -9.613281 0.890625 -9.71875 C 1.066406 -9.832031 1.164062 -9.898438 1.1875 -9.921875 C 1.1875 -9.960938 1.128906 -9.957031 1.015625 -9.90625 C 0.898438 -9.851562 0.796875 -9.804688 0.703125 -9.765625 C 0.597656 -9.742188 0.445312 -9.660156 0.25 -9.515625 C 0.0625 -9.378906 -0.0390625 -9.289062 -0.0625 -9.25 Z M -0.0625 -9.25 "/></g></g></g><g fill="#000000" fill-opacity="1"><g transform="translate(39.272996, 62.286194)"><g><path d="M 1.0625 -1.328125 L 1.0625 -1.125 L 0.390625 -1.125 L 0.390625 -0.765625 L 1 -0.765625 L 1 -0.5625 L 0.390625 -0.5625 L 0.390625 -0.203125 L 1.09375 -0.203125 L 1.09375 0 L 0.1875 0 L 0.1875 -1.328125 Z M 1.0625 -1.328125 "/></g></g></g><g fill="#000000" fill-opacity="1"><g transform="translate(41.205534, 62.286194)"><g><path d="M 0.875 -1.0625 C 0.757812 -1.125 0.660156 -1.15625 0.578125 -1.15625 C 0.515625 -1.15625 0.460938 -1.140625 0.421875 -1.109375 C 0.378906 -1.078125 0.359375 -1.035156 0.359375 -0.984375 C 0.359375 -0.929688 0.378906 -0.890625 0.421875 -0.859375 C 0.472656 -0.828125 0.546875 -0.796875 0.640625 -0.765625 C 0.703125 -0.734375 0.753906 -0.703125 0.796875 -0.671875 C 0.847656 -0.648438 0.890625 -0.613281 0.921875 -0.5625 C 0.953125 -0.507812 0.96875 -0.441406 0.96875 -0.359375 C 0.96875 -0.296875 0.945312 -0.234375 0.90625 -0.171875 C 0.875 -0.117188 0.820312 -0.0703125 0.75 -0.03125 C 0.6875 0 0.609375 0.015625 0.515625 0.015625 C 0.441406 0.015625 0.363281 0.00390625 0.28125 -0.015625 C 0.207031 -0.046875 0.140625 -0.0820312 0.078125 -0.125 L 0.171875 -0.296875 C 0.210938 -0.253906 0.265625 -0.222656 0.328125 -0.203125 C 0.390625 -0.179688 0.445312 -0.171875 0.5 -0.171875 C 0.5625 -0.171875 0.617188 -0.1875 0.671875 -0.21875 C 0.722656 -0.25 0.75 -0.296875 0.75 -0.359375 C 0.75 -0.410156 0.726562 -0.453125 0.6875 -0.484375 C 0.644531 -0.523438 0.585938 -0.554688 0.515625 -0.578125 C 0.441406 -0.609375 0.378906 -0.632812 0.328125 -0.65625 C 0.273438 -0.6875 0.226562 -0.726562 0.1875 -0.78125 C 0.15625 -0.832031 0.140625 -0.894531 0.140625 -0.96875 C 0.140625 -1.070312 0.175781 -1.15625 0.25 -1.21875 C 0.320312 -1.289062 0.421875 -1.332031 0.546875 -1.34375 C 0.628906 -1.34375 0.703125 -1.332031 0.765625 -1.3125 C 0.835938 -1.289062 0.90625 -1.257812 0.96875 -1.21875 Z M 0.875 -1.0625 "/></g></g></g><g fill="#000000" fill-opacity="1"><g transform="translate(42.99925, 62.286194)"><g><path d="M 0.984375 -1.328125 L 0.984375 -1.125 L 0.640625 -1.125 L 0.640625 0 L 0.421875 0 L 0.421875 -1.125 L 0.09375 -1.125 L 0.09375 -1.328125 Z M 0.984375 -1.328125 "/></g></g></g><g fill="#000000" fill-opacity="1"><g transform="translate(44.794793, 62.286194)"><g><path d="M 0.1875 -1.328125 L 0.5625 -1.328125 C 0.726562 -1.328125 0.863281 -1.296875 0.96875 -1.234375 C 1.082031 -1.171875 1.160156 -1.085938 1.203125 -0.984375 C 1.253906 -0.878906 1.28125 -0.765625 1.28125 -0.640625 C 1.28125 -0.515625 1.25 -0.398438 1.1875 -0.296875 C 1.132812 -0.203125 1.054688 -0.128906 0.953125 -0.078125 C 0.847656 -0.0234375 0.738281 0 0.625 0 L 0.1875 0 Z M 0.59375 -0.203125 C 0.6875 -0.203125 0.769531 -0.21875 0.84375 -0.25 C 0.914062 -0.289062 0.96875 -0.34375 1 -0.40625 C 1.039062 -0.476562 1.0625 -0.5625 1.0625 -0.65625 C 1.0625 -0.757812 1.039062 -0.847656 1 -0.921875 C 0.957031 -0.992188 0.898438 -1.046875 0.828125 -1.078125 C 0.765625 -1.109375 0.695312 -1.125 0.625 -1.125 L 0.390625 -1.125 L 0.390625 -0.203125 Z M 0.59375 -0.203125 "/></g></g></g><g fill="#000000" fill-opacity="1"><g transform="translate(46.91547, 62.286194)"><g/></g></g><g fill="#000000" fill-opacity="1"><g transform="translate(48.230616, 62.286194)"><g><path d="M 0.9375 -0.203125 L 0.9375 0 L 0.09375 0 L 0.171875 -0.0625 C 0.285156 -0.1875 0.375 -0.285156 0.4375 -0.359375 C 0.507812 -0.429688 0.566406 -0.503906 0.609375 -0.578125 C 0.660156 -0.660156 0.6875 -0.738281 0.6875 -0.8125 C 0.6875 -0.875 0.664062 -0.921875 0.625 -0.953125 C 0.582031 -0.992188 0.535156 -1.015625 0.484375 -1.015625 C 0.410156 -1.015625 0.359375 -0.992188 0.328125 -0.953125 C 0.296875 -0.921875 0.28125 -0.882812 0.28125 -0.84375 C 0.28125 -0.757812 0.300781 -0.695312 0.34375 -0.65625 L 0.21875 -0.53125 C 0.175781 -0.550781 0.140625 -0.59375 0.109375 -0.65625 C 0.078125 -0.71875 0.0625 -0.773438 0.0625 -0.828125 C 0.0625 -0.898438 0.078125 -0.960938 0.109375 -1.015625 C 0.148438 -1.078125 0.203125 -1.125 0.265625 -1.15625 C 0.335938 -1.195312 0.421875 -1.21875 0.515625 -1.21875 C 0.585938 -1.21875 0.65625 -1.195312 0.71875 -1.15625 C 0.78125 -1.125 0.828125 -1.078125 0.859375 -1.015625 C 0.890625 -0.960938 0.90625 -0.898438 0.90625 -0.828125 C 0.90625 -0.753906 0.890625 -0.679688 0.859375 -0.609375 C 0.828125 -0.546875 0.789062 -0.484375 0.75 -0.421875 C 0.707031 -0.367188 0.644531 -0.296875 0.5625 -0.203125 Z M 0.9375 -0.203125 "/></g></g></g><g fill="#000000" fill-opacity="1"><g transform="translate(49.984147, 62.286194)"><g><path d="M 0.578125 0 C 0.472656 0 0.382812 -0.0195312 0.3125 -0.0625 C 0.238281 -0.113281 0.175781 -0.1875 0.125 -0.28125 C 0.0820312 -0.375 0.0625 -0.484375 0.0625 -0.609375 C 0.0625 -0.816406 0.109375 -0.96875 0.203125 -1.0625 C 0.296875 -1.164062 0.421875 -1.21875 0.578125 -1.21875 C 0.671875 -1.21875 0.753906 -1.191406 0.828125 -1.140625 C 0.910156 -1.097656 0.972656 -1.03125 1.015625 -0.9375 C 1.054688 -0.84375 1.078125 -0.734375 1.078125 -0.609375 C 1.078125 -0.472656 1.054688 -0.359375 1.015625 -0.265625 C 0.972656 -0.179688 0.910156 -0.113281 0.828125 -0.0625 C 0.753906 -0.0195312 0.671875 0 0.578125 0 Z M 0.578125 -0.203125 C 0.671875 -0.203125 0.738281 -0.238281 0.78125 -0.3125 C 0.832031 -0.382812 0.859375 -0.484375 0.859375 -0.609375 C 0.859375 -0.734375 0.832031 -0.832031 0.78125 -0.90625 C 0.738281 -0.976562 0.671875 -1.015625 0.578125 -1.015625 C 0.472656 -1.015625 0.394531 -0.976562 0.34375 -0.90625 C 0.300781 -0.832031 0.28125 -0.734375 0.28125 -0.609375 C 0.28125 -0.484375 0.300781 -0.382812 0.34375 -0.3125 C 0.394531 -0.238281 0.472656 -0.203125 0.578125 -0.203125 Z M 0.578125 -0.203125 "/></g></g></g><g fill="#000000" fill-opacity="1"><g transform="translate(51.856406, 62.286194)"><g><path d="M 0.421875 -1.203125 L 0.421875 0 L 0.21875 0 L 0.21875 -1 L 0.09375 -1 L 0.09375 -1.203125 Z M 0.421875 -1.203125 "/></g></g></g><g fill="#000000" fill-opacity="1"><g transform="translate(53.198953, 62.286194)"><g><path d="M 0.9375 -0.203125 L 0.9375 0 L 0.09375 0 L 0.171875 -0.0625 C 0.285156 -0.1875 0.375 -0.285156 0.4375 -0.359375 C 0.507812 -0.429688 0.566406 -0.503906 0.609375 -0.578125 C 0.660156 -0.660156 0.6875 -0.738281 0.6875 -0.8125 C 0.6875 -0.875 0.664062 -0.921875 0.625 -0.953125 C 0.582031 -0.992188 0.535156 -1.015625 0.484375 -1.015625 C 0.410156 -1.015625 0.359375 -0.992188 0.328125 -0.953125 C 0.296875 -0.921875 0.28125 -0.882812 0.28125 -0.84375 C 0.28125 -0.757812 0.300781 -0.695312 0.34375 -0.65625 L 0.21875 -0.53125 C 0.175781 -0.550781 0.140625 -0.59375 0.109375 -0.65625 C 0.078125 -0.71875 0.0625 -0.773438 0.0625 -0.828125 C 0.0625 -0.898438 0.078125 -0.960938 0.109375 -1.015625 C 0.148438 -1.078125 0.203125 -1.125 0.265625 -1.15625 C 0.335938 -1.195312 0.421875 -1.21875 0.515625 -1.21875 C 0.585938 -1.21875 0.65625 -1.195312 0.71875 -1.15625 C 0.78125 -1.125 0.828125 -1.078125 0.859375 -1.015625 C 0.890625 -0.960938 0.90625 -0.898438 0.90625 -0.828125 C 0.90625 -0.753906 0.890625 -0.679688 0.859375 -0.609375 C 0.828125 -0.546875 0.789062 -0.484375 0.75 -0.421875 C 0.707031 -0.367188 0.644531 -0.296875 0.5625 -0.203125 Z M 0.9375 -0.203125 "/></g></g></g></svg>