<svg style="transform: scale(1.5)" xmlns="http://www.w3.org/2000/svg" xmlns:xlink="http://www.w3.org/1999/xlink" width="125" zoomAndPan="magnify" viewBox="0 0 93.75 93.749996" height="125" preserveAspectRatio="xMidYMid meet" version="1.0"><defs><g/><clipPath id="3b4d50e068"><path d="M 15.359375 39.609375 L 39.296875 39.609375 L 39.296875 44.847656 L 15.359375 44.847656 Z M 15.359375 39.609375 " clip-rule="nonzero"/></clipPath><clipPath id="24812e1895"><path d="M 55 38 L 79 38 L 79 42 L 55 42 Z M 55 38 " clip-rule="nonzero"/></clipPath><clipPath id="2a5c2e39fd"><path d="M 55.433594 36.300781 L 79.292969 38.238281 L 78.871094 43.457031 L 55.011719 41.519531 Z M 55.433594 36.300781 " clip-rule="nonzero"/></clipPath><clipPath id="7f64f201f9"><path d="M 78.492188 43.789062 L 54.632812 41.855469 L 55.054688 36.636719 L 78.914062 38.570312 Z M 78.492188 43.789062 " clip-rule="nonzero"/></clipPath><clipPath id="e0d02fd288"><path d="M 78.492188 43.789062 L 54.632812 41.855469 L 55.054688 36.636719 L 78.914062 38.570312 Z M 78.492188 43.789062 " clip-rule="nonzero"/></clipPath></defs><g clip-path="url(#3b4d50e068)"><path fill="#000000" d="M 16.183594 44.65625 C 16.242188 44.527344 16.21875 44.375 16.121094 44.28125 C 16.113281 44.273438 16.101562 44.261719 16.089844 44.253906 C 16.070312 44.242188 16.054688 44.226562 16.03125 44.210938 C 16.03125 44.210938 16.03125 44.210938 16.03125 44.207031 C 16.027344 44.207031 16.027344 44.207031 16.027344 44.207031 C 15.941406 44.132812 15.863281 44.015625 15.808594 43.925781 C 15.808594 43.871094 15.8125 43.8125 15.820312 43.746094 C 15.863281 43.398438 16.167969 43.035156 16.746094 42.652344 C 17.070312 42.429688 17.476562 42.21875 17.972656 42.015625 C 18.484375 41.8125 19.105469 41.636719 19.828125 41.492188 C 21.402344 41.183594 22.917969 41.105469 24.382812 41.265625 C 25.828125 41.425781 27.308594 41.570312 28.832031 41.703125 C 29.667969 41.792969 30.507812 41.839844 31.355469 41.851562 C 32.203125 41.863281 33.097656 41.8125 34.03125 41.699219 C 36.066406 41.457031 37.574219 41.019531 38.550781 40.390625 C 38.773438 40.242188 38.976562 40.113281 39.164062 40 C 39.179688 39.933594 39.203125 39.871094 39.222656 39.808594 C 39.210938 39.742188 39.203125 39.675781 39.191406 39.609375 C 38.960938 39.757812 38.699219 39.925781 38.394531 40.117188 C 37.390625 40.730469 35.9375 41.152344 34.019531 41.378906 C 32.394531 41.582031 30.847656 41.582031 29.378906 41.386719 C 27.890625 41.191406 26.398438 41.046875 24.902344 40.949219 C 24.089844 40.898438 23.261719 40.886719 22.421875 40.914062 C 21.578125 40.9375 20.714844 41.046875 19.828125 41.226562 C 18.960938 41.410156 18.242188 41.617188 17.667969 41.84375 C 17.121094 42.089844 16.6875 42.332031 16.363281 42.574219 C 15.738281 43.054688 15.441406 43.503906 15.46875 43.921875 L 15.484375 44.0625 C 15.488281 44.101562 15.496094 44.136719 15.503906 44.167969 C 15.507812 44.25 15.507812 44.335938 15.5 44.410156 C 15.492188 44.460938 15.496094 44.515625 15.503906 44.566406 C 15.519531 44.699219 15.667969 44.824219 15.832031 44.84375 " fill-opacity="1" fill-rule="nonzero"/></g><g fill="#000000" fill-opacity="1"><g transform="translate(38.518419, 45.695227)"><g><path d="M 0.15625 -6 C 0.207031 -6.257812 0.3125 -6.453125 0.46875 -6.578125 C 0.632812 -6.710938 0.804688 -6.78125 0.984375 -6.78125 C 1.171875 -6.789062 1.316406 -6.738281 1.421875 -6.625 C 1.523438 -6.519531 1.546875 -6.351562 1.484375 -6.125 C 1.335938 -5.476562 1.210938 -4.800781 1.109375 -4.09375 C 1.015625 -3.382812 0.953125 -2.695312 0.921875 -2.03125 C 0.890625 -1.363281 0.894531 -0.757812 0.9375 -0.21875 C 0.976562 0.3125 1.054688 0.726562 1.171875 1.03125 C 1.296875 1.332031 1.457031 1.46875 1.65625 1.4375 C 1.84375 1.394531 2.085938 1.242188 2.390625 0.984375 C 2.691406 0.722656 3.023438 0.359375 3.390625 -0.109375 C 3.753906 -0.578125 4.097656 -1.128906 4.421875 -1.765625 C 3.921875 -2.023438 3.539062 -2.390625 3.28125 -2.859375 C 3.03125 -3.328125 2.882812 -3.828125 2.84375 -4.359375 C 2.8125 -4.898438 2.875 -5.40625 3.03125 -5.875 C 3.1875 -6.351562 3.425781 -6.738281 3.75 -7.03125 C 4.070312 -7.320312 4.460938 -7.441406 4.921875 -7.390625 C 5.535156 -7.265625 5.859375 -6.710938 5.890625 -5.734375 C 5.929688 -4.753906 5.585938 -3.484375 4.859375 -1.921875 C 5.222656 -1.816406 5.613281 -1.816406 6.03125 -1.921875 C 6.445312 -2.035156 6.851562 -2.21875 7.25 -2.46875 C 7.65625 -2.71875 8.035156 -3.007812 8.390625 -3.34375 C 8.742188 -3.675781 9.046875 -4.007812 9.296875 -4.34375 C 9.328125 -4.394531 9.394531 -4.421875 9.5 -4.421875 C 9.613281 -4.429688 9.671875 -4.410156 9.671875 -4.359375 C 9.191406 -3.734375 8.675781 -3.191406 8.125 -2.734375 C 7.570312 -2.285156 7.003906 -1.957031 6.421875 -1.75 C 5.835938 -1.550781 5.273438 -1.515625 4.734375 -1.640625 C 4.441406 -1.085938 4.101562 -0.5625 3.71875 -0.0625 C 3.332031 0.4375 2.957031 0.851562 2.59375 1.1875 C 2.226562 1.519531 1.914062 1.707031 1.65625 1.75 C 1.238281 1.8125 0.894531 1.671875 0.625 1.328125 C 0.363281 0.984375 0.164062 0.515625 0.03125 -0.078125 C -0.101562 -0.671875 -0.179688 -1.320312 -0.203125 -2.03125 C -0.222656 -2.75 -0.195312 -3.457031 -0.125 -4.15625 C -0.0625 -4.851562 0.03125 -5.46875 0.15625 -6 Z M 4.546875 -2.046875 C 4.984375 -2.921875 5.285156 -3.726562 5.453125 -4.46875 C 5.628906 -5.21875 5.664062 -5.832031 5.5625 -6.3125 C 5.457031 -6.800781 5.207031 -7.082031 4.8125 -7.15625 C 4.46875 -7.175781 4.164062 -7.054688 3.90625 -6.796875 C 3.65625 -6.535156 3.460938 -6.191406 3.328125 -5.765625 C 3.191406 -5.335938 3.132812 -4.882812 3.15625 -4.40625 C 3.1875 -3.925781 3.3125 -3.472656 3.53125 -3.046875 C 3.75 -2.628906 4.085938 -2.296875 4.546875 -2.046875 Z M 4.546875 -2.046875 "/></g></g></g><g fill="#000000" fill-opacity="1"><g transform="translate(47.735935, 45.695227)"><g><path d="M 2.5625 2.390625 C 2.082031 2.742188 1.65625 2.921875 1.28125 2.921875 C 0.988281 2.921875 0.75 2.816406 0.5625 2.609375 C 0.375 2.410156 0.226562 2.148438 0.125 1.828125 C 0.0195312 1.503906 -0.0546875 1.160156 -0.109375 0.796875 C -0.160156 0.441406 -0.191406 0.109375 -0.203125 -0.203125 C -0.210938 -0.523438 -0.21875 -0.78125 -0.21875 -0.96875 C -0.226562 -1.769531 -0.203125 -2.632812 -0.140625 -3.5625 C -0.0859375 -4.5 0.015625 -5.441406 0.171875 -6.390625 C 0.359375 -7.554688 0.597656 -8.6875 0.890625 -9.78125 C 1.191406 -10.882812 1.539062 -11.875 1.9375 -12.75 C 2.34375 -13.632812 2.796875 -14.332031 3.296875 -14.84375 C 3.796875 -15.363281 4.328125 -15.625 4.890625 -15.625 C 5.265625 -15.625 5.578125 -15.476562 5.828125 -15.1875 C 6.078125 -14.90625 6.210938 -14.484375 6.234375 -13.921875 C 6.253906 -13.359375 6.113281 -12.65625 5.8125 -11.8125 C 5.507812 -10.96875 5.003906 -9.988281 4.296875 -8.875 C 3.585938 -7.769531 2.628906 -6.535156 1.421875 -5.171875 C 1.328125 -4.785156 1.210938 -4.234375 1.078125 -3.515625 C 0.953125 -2.796875 0.851562 -2.050781 0.78125 -1.28125 C 0.757812 -1.070312 0.734375 -0.773438 0.703125 -0.390625 C 0.671875 -0.015625 0.660156 0.378906 0.671875 0.796875 C 0.679688 1.210938 0.734375 1.578125 0.828125 1.890625 C 0.921875 2.203125 1.078125 2.410156 1.296875 2.515625 C 1.523438 2.628906 1.835938 2.554688 2.234375 2.296875 C 2.554688 2.078125 2.910156 1.738281 3.296875 1.28125 C 3.679688 0.832031 4.070312 0.332031 4.46875 -0.21875 C 4.875 -0.78125 5.265625 -1.34375 5.640625 -1.90625 C 6.015625 -2.46875 6.347656 -2.972656 6.640625 -3.421875 C 6.929688 -3.867188 7.15625 -4.191406 7.3125 -4.390625 C 7.351562 -4.429688 7.414062 -4.453125 7.5 -4.453125 C 7.59375 -4.453125 7.640625 -4.425781 7.640625 -4.375 C 7.421875 -4.101562 7.160156 -3.738281 6.859375 -3.28125 C 6.566406 -2.832031 6.242188 -2.332031 5.890625 -1.78125 C 5.535156 -1.238281 5.164062 -0.691406 4.78125 -0.140625 C 4.394531 0.398438 4.015625 0.894531 3.640625 1.34375 C 3.265625 1.789062 2.90625 2.140625 2.5625 2.390625 Z M 1.46875 -5.65625 C 2.582031 -6.988281 3.46875 -8.179688 4.125 -9.234375 C 4.78125 -10.296875 5.242188 -11.210938 5.515625 -11.984375 C 5.796875 -12.765625 5.929688 -13.40625 5.921875 -13.90625 C 5.910156 -14.414062 5.800781 -14.789062 5.59375 -15.03125 C 5.394531 -15.269531 5.132812 -15.375 4.8125 -15.34375 C 4.53125 -15.3125 4.253906 -15.085938 3.984375 -14.671875 C 3.710938 -14.265625 3.445312 -13.734375 3.1875 -13.078125 C 2.925781 -12.421875 2.679688 -11.675781 2.453125 -10.84375 C 2.234375 -10.019531 2.039062 -9.160156 1.875 -8.265625 C 1.707031 -7.367188 1.570312 -6.5 1.46875 -5.65625 Z M 1.46875 -5.65625 "/></g></g></g><g clip-path="url(#24812e1895)"><g clip-path="url(#2a5c2e39fd)"><g clip-path="url(#7f64f201f9)"><g clip-path="url(#e0d02fd288)"><path fill="#000000" d="M 78.078125 38.695312 C 78.011719 38.816406 78.019531 38.96875 78.109375 39.070312 C 78.117188 39.082031 78.128906 39.09375 78.136719 39.101562 C 78.15625 39.113281 78.171875 39.128906 78.195312 39.148438 C 78.195312 39.148438 78.195312 39.148438 78.195312 39.152344 C 78.277344 39.234375 78.347656 39.359375 78.390625 39.453125 C 78.390625 39.503906 78.378906 39.5625 78.367188 39.632812 C 78.296875 39.976562 77.960938 40.3125 77.355469 40.644531 C 77.015625 40.839844 76.589844 41.019531 76.082031 41.179688 C 75.554688 41.339844 74.925781 41.464844 74.1875 41.554688 C 72.597656 41.734375 71.078125 41.6875 69.628906 41.410156 C 68.203125 41.136719 66.738281 40.867188 65.234375 40.613281 C 64.410156 40.457031 63.570312 40.339844 62.726562 40.261719 C 61.886719 40.183594 60.992188 40.160156 60.050781 40.199219 C 58.003906 40.273438 56.464844 40.585938 55.4375 41.136719 C 55.207031 41.265625 54.992188 41.378906 54.796875 41.476562 C 54.773438 41.539062 54.75 41.601562 54.722656 41.664062 C 54.726562 41.730469 54.730469 41.796875 54.738281 41.863281 C 54.980469 41.734375 55.253906 41.589844 55.574219 41.421875 C 56.621094 40.890625 58.105469 40.589844 60.035156 40.515625 C 61.671875 40.445312 63.214844 40.570312 64.660156 40.882812 C 66.128906 41.199219 67.605469 41.464844 69.089844 41.683594 C 69.894531 41.800781 70.71875 41.878906 71.558594 41.921875 C 72.402344 41.960938 73.269531 41.925781 74.167969 41.816406 C 75.046875 41.703125 75.78125 41.558594 76.371094 41.375 C 76.9375 41.175781 77.390625 40.96875 77.730469 40.753906 C 78.390625 40.324219 78.726562 39.902344 78.730469 39.484375 L 78.726562 39.34375 C 78.726562 39.304688 78.722656 39.269531 78.71875 39.234375 C 78.71875 39.152344 78.726562 39.066406 78.742188 38.996094 C 78.75 38.945312 78.75 38.890625 78.75 38.835938 C 78.746094 38.703125 78.605469 38.566406 78.445312 38.535156 " fill-opacity="1" fill-rule="nonzero"/></g></g></g></g><g fill="#000000" fill-opacity="1"><g transform="translate(22.927143, 55.896183)"><g><path d="M 3.71875 -3.484375 C 3.726562 -3.484375 3.734375 -3.46875 3.734375 -3.4375 C 3.734375 -3.414062 3.726562 -3.40625 3.71875 -3.40625 C 3.59375 -3.40625 3.484375 -3.367188 3.390625 -3.296875 C 3.296875 -3.234375 3.21875 -3.125 3.15625 -2.96875 L 1.96875 0 C 1.96875 0.0078125 1.945312 0.015625 1.90625 0.015625 C 1.882812 0.015625 1.867188 0.0078125 1.859375 0 L 0.46875 -3.015625 C 0.40625 -3.160156 0.335938 -3.257812 0.265625 -3.3125 C 0.191406 -3.375 0.101562 -3.40625 0 -3.40625 C -0.0078125 -3.40625 -0.015625 -3.414062 -0.015625 -3.4375 C -0.015625 -3.46875 -0.0078125 -3.484375 0 -3.484375 L 0.203125 -3.46875 C 0.304688 -3.457031 0.390625 -3.453125 0.453125 -3.453125 C 0.597656 -3.453125 0.757812 -3.457031 0.9375 -3.46875 L 1.15625 -3.484375 C 1.164062 -3.484375 1.171875 -3.46875 1.171875 -3.4375 C 1.171875 -3.414062 1.164062 -3.40625 1.15625 -3.40625 C 0.925781 -3.40625 0.8125 -3.34375 0.8125 -3.21875 C 0.8125 -3.164062 0.832031 -3.101562 0.875 -3.03125 L 2.03125 -0.484375 L 3.03125 -3 C 3.0625 -3.070312 3.078125 -3.132812 3.078125 -3.1875 C 3.078125 -3.257812 3.039062 -3.3125 2.96875 -3.34375 C 2.894531 -3.382812 2.785156 -3.40625 2.640625 -3.40625 C 2.628906 -3.40625 2.625 -3.414062 2.625 -3.4375 C 2.625 -3.46875 2.628906 -3.484375 2.640625 -3.484375 L 2.875 -3.46875 C 3.007812 -3.457031 3.125 -3.453125 3.21875 -3.453125 C 3.300781 -3.453125 3.390625 -3.457031 3.484375 -3.46875 Z M 3.71875 -3.484375 "/></g></g></g><g fill="#000000" fill-opacity="1"><g transform="translate(27.362341, 55.896183)"><g><path d="M 1.109375 -0.453125 C 1.109375 -0.335938 1.117188 -0.253906 1.140625 -0.203125 C 1.160156 -0.148438 1.203125 -0.113281 1.265625 -0.09375 C 1.335938 -0.0703125 1.441406 -0.0625 1.578125 -0.0625 C 1.585938 -0.0625 1.59375 -0.0507812 1.59375 -0.03125 C 1.59375 -0.0078125 1.585938 0 1.578125 0 C 1.460938 0 1.375 0 1.3125 0 L 0.921875 -0.015625 L 0.53125 0 C 0.46875 0 0.378906 0 0.265625 0 C 0.253906 0 0.25 -0.0078125 0.25 -0.03125 C 0.25 -0.0507812 0.253906 -0.0625 0.265625 -0.0625 C 0.398438 -0.0625 0.5 -0.0703125 0.5625 -0.09375 C 0.632812 -0.113281 0.679688 -0.148438 0.703125 -0.203125 C 0.722656 -0.253906 0.734375 -0.335938 0.734375 -0.453125 L 0.734375 -3.03125 C 0.734375 -3.132812 0.722656 -3.210938 0.703125 -3.265625 C 0.679688 -3.316406 0.632812 -3.351562 0.5625 -3.375 C 0.5 -3.394531 0.398438 -3.40625 0.265625 -3.40625 C 0.253906 -3.40625 0.25 -3.414062 0.25 -3.4375 C 0.25 -3.46875 0.253906 -3.484375 0.265625 -3.484375 L 0.53125 -3.46875 C 0.6875 -3.457031 0.816406 -3.453125 0.921875 -3.453125 C 1.023438 -3.453125 1.15625 -3.457031 1.3125 -3.46875 L 1.578125 -3.484375 C 1.585938 -3.484375 1.59375 -3.46875 1.59375 -3.4375 C 1.59375 -3.414062 1.585938 -3.40625 1.578125 -3.40625 C 1.441406 -3.40625 1.335938 -3.394531 1.265625 -3.375 C 1.203125 -3.351562 1.160156 -3.316406 1.140625 -3.265625 C 1.117188 -3.210938 1.109375 -3.128906 1.109375 -3.015625 Z M 1.109375 -0.453125 "/></g></g></g><g fill="#000000" fill-opacity="1"><g transform="translate(29.941274, 55.896183)"><g><path d="M 2.03125 0.0625 C 1.6875 0.0625 1.378906 -0.015625 1.109375 -0.171875 C 0.847656 -0.335938 0.640625 -0.554688 0.484375 -0.828125 C 0.335938 -1.109375 0.265625 -1.410156 0.265625 -1.734375 C 0.265625 -2.117188 0.359375 -2.445312 0.546875 -2.71875 C 0.742188 -2.988281 0.992188 -3.191406 1.296875 -3.328125 C 1.597656 -3.460938 1.910156 -3.53125 2.234375 -3.53125 C 2.585938 -3.53125 2.894531 -3.445312 3.15625 -3.28125 C 3.425781 -3.125 3.628906 -2.910156 3.765625 -2.640625 C 3.910156 -2.367188 3.984375 -2.082031 3.984375 -1.78125 C 3.984375 -1.4375 3.894531 -1.125 3.71875 -0.84375 C 3.539062 -0.5625 3.300781 -0.335938 3 -0.171875 C 2.707031 -0.015625 2.382812 0.0625 2.03125 0.0625 Z M 2.234375 -0.046875 C 2.484375 -0.046875 2.707031 -0.109375 2.90625 -0.234375 C 3.113281 -0.359375 3.273438 -0.535156 3.390625 -0.765625 C 3.503906 -1.003906 3.5625 -1.289062 3.5625 -1.625 C 3.5625 -1.96875 3.492188 -2.273438 3.359375 -2.546875 C 3.234375 -2.816406 3.050781 -3.023438 2.8125 -3.171875 C 2.582031 -3.328125 2.3125 -3.40625 2 -3.40625 C 1.59375 -3.40625 1.273438 -3.273438 1.046875 -3.015625 C 0.816406 -2.753906 0.703125 -2.394531 0.703125 -1.9375 C 0.703125 -1.582031 0.765625 -1.257812 0.890625 -0.96875 C 1.015625 -0.6875 1.191406 -0.460938 1.421875 -0.296875 C 1.660156 -0.128906 1.929688 -0.046875 2.234375 -0.046875 Z M 2.234375 -0.046875 "/></g></g></g><g fill="#000000" fill-opacity="1"><g transform="translate(34.932238, 55.896183)"><g><path d="M 1.03125 -0.46875 C 1.03125 -0.363281 1.039062 -0.285156 1.0625 -0.234375 C 1.082031 -0.191406 1.125 -0.160156 1.1875 -0.140625 C 1.25 -0.117188 1.34375 -0.109375 1.46875 -0.109375 L 2.078125 -0.109375 C 2.285156 -0.109375 2.453125 -0.171875 2.578125 -0.296875 C 2.710938 -0.429688 2.800781 -0.613281 2.84375 -0.84375 C 2.84375 -0.863281 2.847656 -0.867188 2.859375 -0.859375 C 2.878906 -0.859375 2.890625 -0.851562 2.890625 -0.84375 C 2.859375 -0.539062 2.84375 -0.285156 2.84375 -0.078125 C 2.84375 -0.046875 2.835938 -0.0234375 2.828125 -0.015625 C 2.816406 -0.00390625 2.796875 0 2.765625 0 L 0.1875 0 C 0.1875 0 0.1875 -0.0078125 0.1875 -0.03125 C 0.1875 -0.0507812 0.1875 -0.0625 0.1875 -0.0625 C 0.332031 -0.0625 0.4375 -0.0703125 0.5 -0.09375 C 0.5625 -0.113281 0.601562 -0.148438 0.625 -0.203125 C 0.65625 -0.253906 0.671875 -0.335938 0.671875 -0.453125 L 0.671875 -3.03125 C 0.671875 -3.132812 0.65625 -3.210938 0.625 -3.265625 C 0.601562 -3.316406 0.5625 -3.351562 0.5 -3.375 C 0.4375 -3.394531 0.332031 -3.40625 0.1875 -3.40625 C 0.1875 -3.40625 0.1875 -3.414062 0.1875 -3.4375 C 0.1875 -3.46875 0.1875 -3.484375 0.1875 -3.484375 L 0.46875 -3.46875 C 0.625 -3.457031 0.75 -3.453125 0.84375 -3.453125 C 0.945312 -3.453125 1.078125 -3.457031 1.234375 -3.46875 L 1.5 -3.484375 C 1.507812 -3.484375 1.515625 -3.46875 1.515625 -3.4375 C 1.515625 -3.414062 1.507812 -3.40625 1.5 -3.40625 C 1.363281 -3.40625 1.257812 -3.394531 1.1875 -3.375 C 1.125 -3.351562 1.082031 -3.316406 1.0625 -3.265625 C 1.039062 -3.210938 1.03125 -3.128906 1.03125 -3.015625 Z M 1.03125 -0.46875 "/></g></g></g><g fill="#000000" fill-opacity="1"><g transform="translate(38.628263, 55.896183)"><g><path d="M 3.890625 -0.0625 C 3.898438 -0.0625 3.90625 -0.0507812 3.90625 -0.03125 C 3.90625 -0.0078125 3.898438 0 3.890625 0 C 3.816406 0 3.707031 -0.00390625 3.5625 -0.015625 C 3.414062 -0.015625 3.304688 -0.015625 3.234375 -0.015625 C 3.148438 -0.015625 3.046875 -0.015625 2.921875 -0.015625 C 2.804688 -0.00390625 2.71875 0 2.65625 0 C 2.632812 0 2.625 -0.0078125 2.625 -0.03125 C 2.625 -0.0507812 2.632812 -0.0625 2.65625 -0.0625 C 2.789062 -0.0625 2.890625 -0.0703125 2.953125 -0.09375 C 3.015625 -0.125 3.046875 -0.171875 3.046875 -0.234375 C 3.046875 -0.285156 3.019531 -0.367188 2.96875 -0.484375 L 2.484375 -1.53125 L 1.15625 -1.53125 L 0.8125 -0.703125 C 0.757812 -0.578125 0.734375 -0.476562 0.734375 -0.40625 C 0.734375 -0.289062 0.773438 -0.203125 0.859375 -0.140625 C 0.953125 -0.0859375 1.09375 -0.0625 1.28125 -0.0625 C 1.289062 -0.0625 1.296875 -0.0507812 1.296875 -0.03125 C 1.296875 -0.0078125 1.289062 0 1.28125 0 C 1.207031 0 1.109375 -0.00390625 0.984375 -0.015625 C 0.835938 -0.015625 0.71875 -0.015625 0.625 -0.015625 C 0.519531 -0.015625 0.40625 -0.015625 0.28125 -0.015625 C 0.164062 -0.00390625 0.0703125 0 0 0 C -0.0078125 0 -0.015625 -0.0078125 -0.015625 -0.03125 C -0.015625 -0.0507812 -0.0078125 -0.0625 0 -0.0625 C 0.101562 -0.0625 0.191406 -0.0820312 0.265625 -0.125 C 0.335938 -0.164062 0.40625 -0.234375 0.46875 -0.328125 C 0.539062 -0.429688 0.613281 -0.570312 0.6875 -0.75 L 1.859375 -3.53125 C 1.867188 -3.539062 1.882812 -3.546875 1.90625 -3.546875 C 1.925781 -3.546875 1.9375 -3.539062 1.9375 -3.53125 L 3.25 -0.765625 C 3.375 -0.484375 3.476562 -0.296875 3.5625 -0.203125 C 3.65625 -0.109375 3.765625 -0.0625 3.890625 -0.0625 Z M 1.203125 -1.640625 L 2.4375 -1.640625 L 1.78125 -3.015625 Z M 1.203125 -1.640625 "/></g></g></g><g fill="#000000" fill-opacity="1"><g transform="translate(43.263536, 55.896183)"><g/></g></g><g fill="#000000" fill-opacity="1"><g transform="translate(45.297814, 55.896183)"><g><path d="M 3.875 -0.0625 C 3.894531 -0.0625 3.898438 -0.0507812 3.890625 -0.03125 C 3.890625 -0.0078125 3.882812 0 3.875 0 L 3.28125 0 C 3.113281 0 2.859375 -0.128906 2.515625 -0.390625 C 2.210938 -0.0859375 1.835938 0.0625 1.390625 0.0625 C 1.160156 0.0625 0.96875 0.0234375 0.8125 -0.046875 C 0.65625 -0.128906 0.539062 -0.234375 0.46875 -0.359375 C 0.394531 -0.484375 0.359375 -0.617188 0.359375 -0.765625 C 0.359375 -0.972656 0.421875 -1.15625 0.546875 -1.3125 C 0.679688 -1.46875 0.875 -1.640625 1.125 -1.828125 C 1.0625 -1.921875 1.007812 -2.015625 0.96875 -2.109375 C 0.851562 -2.335938 0.796875 -2.535156 0.796875 -2.703125 C 0.796875 -2.867188 0.832031 -3.019531 0.90625 -3.15625 C 0.988281 -3.289062 1.097656 -3.394531 1.234375 -3.46875 C 1.378906 -3.550781 1.539062 -3.59375 1.71875 -3.59375 C 1.894531 -3.59375 2.046875 -3.550781 2.171875 -3.46875 C 2.304688 -3.382812 2.375 -3.242188 2.375 -3.046875 C 2.375 -2.898438 2.335938 -2.769531 2.265625 -2.65625 C 2.191406 -2.539062 2.101562 -2.4375 2 -2.34375 C 1.894531 -2.257812 1.753906 -2.160156 1.578125 -2.046875 C 1.546875 -2.023438 1.503906 -2 1.453125 -1.96875 C 1.710938 -1.550781 2.109375 -1.132812 2.640625 -0.71875 C 2.773438 -0.945312 2.84375 -1.195312 2.84375 -1.46875 C 2.84375 -1.601562 2.8125 -1.703125 2.75 -1.765625 C 2.695312 -1.835938 2.59375 -1.875 2.4375 -1.875 C 2.425781 -1.875 2.421875 -1.882812 2.421875 -1.90625 C 2.421875 -1.925781 2.425781 -1.9375 2.4375 -1.9375 L 3.609375 -1.953125 C 3.617188 -1.953125 3.625 -1.9375 3.625 -1.90625 C 3.625 -1.882812 3.617188 -1.875 3.609375 -1.875 C 3.484375 -1.875 3.382812 -1.863281 3.3125 -1.84375 C 3.25 -1.820312 3.203125 -1.789062 3.171875 -1.75 C 3.148438 -1.707031 3.128906 -1.640625 3.109375 -1.546875 C 3.003906 -1.179688 2.875 -0.882812 2.71875 -0.65625 C 2.9375 -0.5 3.148438 -0.367188 3.359375 -0.265625 C 3.566406 -0.160156 3.738281 -0.09375 3.875 -0.0625 Z M 1.125 -2.953125 C 1.125 -2.660156 1.21875 -2.351562 1.40625 -2.03125 C 1.613281 -2.1875 1.769531 -2.332031 1.875 -2.46875 C 1.988281 -2.613281 2.046875 -2.773438 2.046875 -2.953125 C 2.046875 -3.117188 2 -3.25 1.90625 -3.34375 C 1.820312 -3.4375 1.707031 -3.484375 1.5625 -3.484375 C 1.269531 -3.484375 1.125 -3.304688 1.125 -2.953125 Z M 1.640625 -0.09375 C 1.953125 -0.09375 2.21875 -0.210938 2.4375 -0.453125 L 2.34375 -0.53125 C 2.125 -0.707031 1.910156 -0.898438 1.703125 -1.109375 C 1.492188 -1.328125 1.316406 -1.539062 1.171875 -1.75 C 1.023438 -1.632812 0.910156 -1.515625 0.828125 -1.390625 C 0.753906 -1.265625 0.71875 -1.117188 0.71875 -0.953125 C 0.71875 -0.796875 0.753906 -0.648438 0.828125 -0.515625 C 0.910156 -0.390625 1.019531 -0.285156 1.15625 -0.203125 C 1.300781 -0.128906 1.460938 -0.09375 1.640625 -0.09375 Z M 1.640625 -0.09375 "/></g></g></g><g fill="#000000" fill-opacity="1"><g transform="translate(49.9053, 55.896183)"><g/></g></g><g fill="#000000" fill-opacity="1"><g transform="translate(51.939581, 55.896183)"><g><path d="M 1.03125 -0.46875 C 1.03125 -0.363281 1.039062 -0.285156 1.0625 -0.234375 C 1.082031 -0.191406 1.125 -0.160156 1.1875 -0.140625 C 1.25 -0.117188 1.34375 -0.109375 1.46875 -0.109375 L 2.078125 -0.109375 C 2.285156 -0.109375 2.453125 -0.171875 2.578125 -0.296875 C 2.710938 -0.429688 2.800781 -0.613281 2.84375 -0.84375 C 2.84375 -0.863281 2.847656 -0.867188 2.859375 -0.859375 C 2.878906 -0.859375 2.890625 -0.851562 2.890625 -0.84375 C 2.859375 -0.539062 2.84375 -0.285156 2.84375 -0.078125 C 2.84375 -0.046875 2.835938 -0.0234375 2.828125 -0.015625 C 2.816406 -0.00390625 2.796875 0 2.765625 0 L 0.1875 0 C 0.1875 0 0.1875 -0.0078125 0.1875 -0.03125 C 0.1875 -0.0507812 0.1875 -0.0625 0.1875 -0.0625 C 0.332031 -0.0625 0.4375 -0.0703125 0.5 -0.09375 C 0.5625 -0.113281 0.601562 -0.148438 0.625 -0.203125 C 0.65625 -0.253906 0.671875 -0.335938 0.671875 -0.453125 L 0.671875 -3.03125 C 0.671875 -3.132812 0.65625 -3.210938 0.625 -3.265625 C 0.601562 -3.316406 0.5625 -3.351562 0.5 -3.375 C 0.4375 -3.394531 0.332031 -3.40625 0.1875 -3.40625 C 0.1875 -3.40625 0.1875 -3.414062 0.1875 -3.4375 C 0.1875 -3.46875 0.1875 -3.484375 0.1875 -3.484375 L 0.46875 -3.46875 C 0.625 -3.457031 0.75 -3.453125 0.84375 -3.453125 C 0.945312 -3.453125 1.078125 -3.457031 1.234375 -3.46875 L 1.5 -3.484375 C 1.507812 -3.484375 1.515625 -3.46875 1.515625 -3.4375 C 1.515625 -3.414062 1.507812 -3.40625 1.5 -3.40625 C 1.363281 -3.40625 1.257812 -3.394531 1.1875 -3.375 C 1.125 -3.351562 1.082031 -3.316406 1.0625 -3.265625 C 1.039062 -3.210938 1.03125 -3.128906 1.03125 -3.015625 Z M 1.03125 -0.46875 "/></g></g></g><g fill="#000000" fill-opacity="1"><g transform="translate(55.635606, 55.896183)"><g><path d="M 2.640625 -0.828125 C 2.640625 -0.835938 2.648438 -0.84375 2.671875 -0.84375 C 2.679688 -0.84375 2.6875 -0.835938 2.6875 -0.828125 C 2.695312 -0.828125 2.703125 -0.820312 2.703125 -0.8125 C 2.671875 -0.582031 2.65625 -0.335938 2.65625 -0.078125 C 2.65625 -0.046875 2.648438 -0.0234375 2.640625 -0.015625 C 2.628906 -0.00390625 2.601562 0 2.5625 0 L 0.234375 0 C 0.234375 0 0.234375 -0.0078125 0.234375 -0.03125 C 0.234375 -0.0507812 0.234375 -0.0625 0.234375 -0.0625 C 0.378906 -0.0625 0.484375 -0.0703125 0.546875 -0.09375 C 0.609375 -0.113281 0.648438 -0.148438 0.671875 -0.203125 C 0.703125 -0.253906 0.71875 -0.335938 0.71875 -0.453125 L 0.71875 -3.03125 C 0.71875 -3.132812 0.703125 -3.210938 0.671875 -3.265625 C 0.648438 -3.316406 0.609375 -3.351562 0.546875 -3.375 C 0.484375 -3.394531 0.378906 -3.40625 0.234375 -3.40625 C 0.234375 -3.40625 0.234375 -3.414062 0.234375 -3.4375 C 0.234375 -3.46875 0.234375 -3.484375 0.234375 -3.484375 L 2.46875 -3.484375 C 2.507812 -3.484375 2.53125 -3.460938 2.53125 -3.421875 L 2.53125 -2.75 C 2.53125 -2.726562 2.519531 -2.71875 2.5 -2.71875 C 2.488281 -2.71875 2.476562 -2.722656 2.46875 -2.734375 C 2.457031 -2.929688 2.398438 -3.082031 2.296875 -3.1875 C 2.191406 -3.300781 2.050781 -3.359375 1.875 -3.359375 L 1.53125 -3.359375 C 1.394531 -3.359375 1.296875 -3.347656 1.234375 -3.328125 C 1.179688 -3.304688 1.140625 -3.269531 1.109375 -3.21875 C 1.085938 -3.164062 1.078125 -3.09375 1.078125 -3 L 1.078125 -1.875 L 1.75 -1.875 C 1.9375 -1.875 2.066406 -1.898438 2.140625 -1.953125 C 2.210938 -2.015625 2.25 -2.117188 2.25 -2.265625 C 2.25 -2.265625 2.257812 -2.265625 2.28125 -2.265625 C 2.300781 -2.265625 2.3125 -2.265625 2.3125 -2.265625 L 2.3125 -1.8125 C 2.3125 -1.695312 2.3125 -1.613281 2.3125 -1.5625 L 2.328125 -1.296875 C 2.328125 -1.285156 2.316406 -1.28125 2.296875 -1.28125 C 2.273438 -1.28125 2.265625 -1.285156 2.265625 -1.296875 C 2.265625 -1.460938 2.222656 -1.578125 2.140625 -1.640625 C 2.054688 -1.710938 1.921875 -1.75 1.734375 -1.75 L 1.078125 -1.75 L 1.078125 -0.46875 C 1.078125 -0.363281 1.085938 -0.285156 1.109375 -0.234375 C 1.128906 -0.191406 1.171875 -0.160156 1.234375 -0.140625 C 1.296875 -0.117188 1.390625 -0.109375 1.515625 -0.109375 L 1.953125 -0.109375 C 2.128906 -0.109375 2.273438 -0.171875 2.390625 -0.296875 C 2.515625 -0.429688 2.597656 -0.609375 2.640625 -0.828125 Z M 2.640625 -0.828125 "/></g></g></g><g fill="#000000" fill-opacity="1"><g transform="translate(59.353863, 55.896183)"><g><path d="M 5.203125 -3.484375 C 5.210938 -3.484375 5.21875 -3.46875 5.21875 -3.4375 C 5.21875 -3.414062 5.210938 -3.40625 5.203125 -3.40625 C 5.078125 -3.40625 4.96875 -3.367188 4.875 -3.296875 C 4.78125 -3.234375 4.703125 -3.125 4.640625 -2.96875 L 3.453125 0 C 3.441406 0.0078125 3.421875 0.015625 3.390625 0.015625 C 3.359375 0.015625 3.335938 0.0078125 3.328125 0 L 2.609375 -1.578125 L 1.96875 0 C 1.96875 0.0078125 1.945312 0.015625 1.90625 0.015625 C 1.882812 0.015625 1.867188 0.0078125 1.859375 0 L 0.46875 -3.015625 C 0.394531 -3.160156 0.328125 -3.257812 0.265625 -3.3125 C 0.203125 -3.375 0.113281 -3.40625 0 -3.40625 C -0.0078125 -3.40625 -0.015625 -3.414062 -0.015625 -3.4375 C -0.015625 -3.46875 -0.0078125 -3.484375 0 -3.484375 L 0.203125 -3.46875 C 0.304688 -3.457031 0.390625 -3.453125 0.453125 -3.453125 C 0.585938 -3.453125 0.734375 -3.457031 0.890625 -3.46875 L 1.125 -3.484375 C 1.132812 -3.484375 1.140625 -3.46875 1.140625 -3.4375 C 1.140625 -3.414062 1.132812 -3.40625 1.125 -3.40625 C 1.007812 -3.40625 0.925781 -3.390625 0.875 -3.359375 C 0.820312 -3.335938 0.796875 -3.296875 0.796875 -3.234375 C 0.796875 -3.179688 0.8125 -3.113281 0.84375 -3.03125 L 2.03125 -0.5 L 2.53125 -1.734375 L 1.9375 -3.015625 C 1.875 -3.148438 1.804688 -3.25 1.734375 -3.3125 C 1.671875 -3.375 1.585938 -3.40625 1.484375 -3.40625 C 1.472656 -3.40625 1.46875 -3.414062 1.46875 -3.4375 C 1.46875 -3.46875 1.472656 -3.484375 1.484375 -3.484375 L 1.6875 -3.46875 C 1.789062 -3.457031 1.875 -3.453125 1.9375 -3.453125 C 2.039062 -3.453125 2.148438 -3.457031 2.265625 -3.46875 L 2.421875 -3.484375 C 2.429688 -3.484375 2.4375 -3.46875 2.4375 -3.4375 C 2.4375 -3.414062 2.429688 -3.40625 2.421875 -3.40625 C 2.347656 -3.40625 2.296875 -3.398438 2.265625 -3.390625 C 2.234375 -3.378906 2.21875 -3.359375 2.21875 -3.328125 C 2.21875 -3.273438 2.253906 -3.175781 2.328125 -3.03125 L 2.734375 -2.171875 L 3.0625 -3 C 3.101562 -3.113281 3.125 -3.195312 3.125 -3.25 C 3.125 -3.300781 3.101562 -3.335938 3.0625 -3.359375 C 3.03125 -3.390625 2.972656 -3.40625 2.890625 -3.40625 C 2.878906 -3.40625 2.875 -3.414062 2.875 -3.4375 C 2.875 -3.46875 2.878906 -3.484375 2.890625 -3.484375 L 3.015625 -3.46875 C 3.085938 -3.457031 3.164062 -3.453125 3.25 -3.453125 C 3.320312 -3.453125 3.40625 -3.457031 3.5 -3.46875 L 3.734375 -3.484375 C 3.742188 -3.484375 3.75 -3.46875 3.75 -3.4375 C 3.75 -3.414062 3.742188 -3.40625 3.734375 -3.40625 C 3.609375 -3.40625 3.5 -3.375 3.40625 -3.3125 C 3.320312 -3.25 3.25 -3.132812 3.1875 -2.96875 L 2.796875 -2.015625 L 3.515625 -0.5 L 4.5 -2.984375 C 4.53125 -3.066406 4.546875 -3.132812 4.546875 -3.1875 C 4.546875 -3.257812 4.507812 -3.3125 4.4375 -3.34375 C 4.375 -3.382812 4.273438 -3.40625 4.140625 -3.40625 C 4.117188 -3.40625 4.109375 -3.414062 4.109375 -3.4375 C 4.109375 -3.46875 4.117188 -3.484375 4.140625 -3.484375 L 4.359375 -3.46875 C 4.484375 -3.457031 4.597656 -3.453125 4.703125 -3.453125 C 4.773438 -3.453125 4.863281 -3.457031 4.96875 -3.46875 Z M 5.203125 -3.484375 "/></g></g></g><g fill="#000000" fill-opacity="1"><g transform="translate(65.261845, 55.896183)"><g><path d="M 1.109375 -0.453125 C 1.109375 -0.335938 1.117188 -0.253906 1.140625 -0.203125 C 1.160156 -0.148438 1.203125 -0.113281 1.265625 -0.09375 C 1.335938 -0.0703125 1.441406 -0.0625 1.578125 -0.0625 C 1.585938 -0.0625 1.59375 -0.0507812 1.59375 -0.03125 C 1.59375 -0.0078125 1.585938 0 1.578125 0 C 1.460938 0 1.375 0 1.3125 0 L 0.921875 -0.015625 L 0.53125 0 C 0.46875 0 0.378906 0 0.265625 0 C 0.253906 0 0.25 -0.0078125 0.25 -0.03125 C 0.25 -0.0507812 0.253906 -0.0625 0.265625 -0.0625 C 0.398438 -0.0625 0.5 -0.0703125 0.5625 -0.09375 C 0.632812 -0.113281 0.679688 -0.148438 0.703125 -0.203125 C 0.722656 -0.253906 0.734375 -0.335938 0.734375 -0.453125 L 0.734375 -3.03125 C 0.734375 -3.132812 0.722656 -3.210938 0.703125 -3.265625 C 0.679688 -3.316406 0.632812 -3.351562 0.5625 -3.375 C 0.5 -3.394531 0.398438 -3.40625 0.265625 -3.40625 C 0.253906 -3.40625 0.25 -3.414062 0.25 -3.4375 C 0.25 -3.46875 0.253906 -3.484375 0.265625 -3.484375 L 0.53125 -3.46875 C 0.6875 -3.457031 0.816406 -3.453125 0.921875 -3.453125 C 1.023438 -3.453125 1.15625 -3.457031 1.3125 -3.46875 L 1.578125 -3.484375 C 1.585938 -3.484375 1.59375 -3.46875 1.59375 -3.4375 C 1.59375 -3.414062 1.585938 -3.40625 1.578125 -3.40625 C 1.441406 -3.40625 1.335938 -3.394531 1.265625 -3.375 C 1.203125 -3.351562 1.160156 -3.316406 1.140625 -3.265625 C 1.117188 -3.210938 1.109375 -3.128906 1.109375 -3.015625 Z M 1.109375 -0.453125 "/></g></g></g><g fill="#000000" fill-opacity="1"><g transform="translate(67.840777, 55.896183)"><g><path d="M 0.8125 -2.828125 C 0.8125 -2.679688 0.84375 -2.550781 0.90625 -2.4375 C 0.976562 -2.332031 1.066406 -2.242188 1.171875 -2.171875 C 1.273438 -2.097656 1.414062 -2.007812 1.59375 -1.90625 C 1.789062 -1.789062 1.941406 -1.691406 2.046875 -1.609375 C 2.148438 -1.535156 2.238281 -1.4375 2.3125 -1.3125 C 2.394531 -1.195312 2.4375 -1.054688 2.4375 -0.890625 C 2.4375 -0.710938 2.390625 -0.550781 2.296875 -0.40625 C 2.203125 -0.257812 2.066406 -0.144531 1.890625 -0.0625 C 1.722656 0.0195312 1.519531 0.0625 1.28125 0.0625 C 1 0.0625 0.738281 0 0.5 -0.125 C 0.476562 -0.132812 0.460938 -0.144531 0.453125 -0.15625 C 0.453125 -0.175781 0.453125 -0.203125 0.453125 -0.234375 L 0.375 -0.984375 C 0.375 -1.003906 0.382812 -1.015625 0.40625 -1.015625 C 0.425781 -1.023438 0.4375 -1.019531 0.4375 -1 C 0.5 -0.726562 0.609375 -0.492188 0.765625 -0.296875 C 0.929688 -0.109375 1.144531 -0.015625 1.40625 -0.015625 C 1.59375 -0.015625 1.75 -0.0664062 1.875 -0.171875 C 2.007812 -0.273438 2.078125 -0.4375 2.078125 -0.65625 C 2.078125 -0.820312 2.039062 -0.96875 1.96875 -1.09375 C 1.894531 -1.21875 1.800781 -1.316406 1.6875 -1.390625 C 1.582031 -1.472656 1.441406 -1.570312 1.265625 -1.6875 C 1.085938 -1.789062 0.945312 -1.878906 0.84375 -1.953125 C 0.738281 -2.035156 0.648438 -2.132812 0.578125 -2.25 C 0.515625 -2.375 0.484375 -2.515625 0.484375 -2.671875 C 0.484375 -2.859375 0.53125 -3.015625 0.625 -3.140625 C 0.71875 -3.273438 0.84375 -3.375 1 -3.4375 C 1.164062 -3.5 1.335938 -3.53125 1.515625 -3.53125 C 1.734375 -3.53125 1.945312 -3.488281 2.15625 -3.40625 C 2.21875 -3.382812 2.25 -3.351562 2.25 -3.3125 L 2.28125 -2.671875 C 2.28125 -2.648438 2.269531 -2.640625 2.25 -2.640625 C 2.238281 -2.640625 2.226562 -2.648438 2.21875 -2.671875 C 2.195312 -2.859375 2.117188 -3.035156 1.984375 -3.203125 C 1.859375 -3.367188 1.671875 -3.453125 1.421875 -3.453125 C 1.210938 -3.453125 1.054688 -3.390625 0.953125 -3.265625 C 0.859375 -3.148438 0.8125 -3.003906 0.8125 -2.828125 Z M 0.8125 -2.828125 "/></g></g></g><g fill="#000000" fill-opacity="1"><g transform="translate(38.068672, 62.155664)"><g><path d="M 0.96875 -0.65625 C 0.96875 -0.382812 0.976562 -0.222656 1 -0.171875 C 1.007812 -0.148438 1.019531 -0.125 1.03125 -0.09375 C 1.050781 -0.0703125 1.078125 -0.0625 1.109375 -0.0625 C 1.160156 -0.0390625 1.226562 -0.03125 1.3125 -0.03125 L 1.328125 0 L 0.421875 0 L 0.421875 -0.03125 C 0.484375 -0.03125 0.53125 -0.03125 0.5625 -0.03125 C 0.59375 -0.0390625 0.625 -0.0507812 0.65625 -0.0625 C 0.6875 -0.0820312 0.707031 -0.101562 0.71875 -0.125 C 0.726562 -0.15625 0.738281 -0.195312 0.75 -0.25 C 0.757812 -0.320312 0.765625 -0.457031 0.765625 -0.65625 L 0.765625 -1.4375 C 0.765625 -1.5625 0.722656 -1.625 0.640625 -1.625 C 0.578125 -1.625 0.46875 -1.59375 0.3125 -1.53125 L 0.28125 -1.578125 C 0.613281 -1.734375 0.832031 -1.84375 0.9375 -1.90625 L 0.96875 -1.890625 Z M 0.96875 -0.65625 "/></g></g></g><g fill="#000000" fill-opacity="1"><g transform="translate(40.063388, 62.155664)"><g><path d="M 1.359375 -0.421875 L 1.390625 -0.421875 L 1.390625 0 L 0.21875 0 L 0.21875 -0.03125 C 0.5 -0.3125 0.71875 -0.578125 0.875 -0.828125 C 1.039062 -1.078125 1.125 -1.289062 1.125 -1.46875 C 1.125 -1.570312 1.09375 -1.65625 1.03125 -1.71875 C 0.976562 -1.789062 0.898438 -1.828125 0.796875 -1.828125 C 0.734375 -1.828125 0.675781 -1.8125 0.625 -1.78125 C 0.570312 -1.75 0.535156 -1.710938 0.515625 -1.671875 C 0.492188 -1.640625 0.46875 -1.609375 0.4375 -1.578125 C 0.40625 -1.546875 0.375 -1.53125 0.34375 -1.53125 C 0.320312 -1.53125 0.300781 -1.539062 0.28125 -1.5625 C 0.257812 -1.582031 0.25 -1.601562 0.25 -1.625 C 0.25 -1.695312 0.300781 -1.757812 0.40625 -1.8125 C 0.519531 -1.875 0.648438 -1.90625 0.796875 -1.90625 C 0.953125 -1.90625 1.082031 -1.867188 1.1875 -1.796875 C 1.289062 -1.722656 1.34375 -1.609375 1.34375 -1.453125 C 1.34375 -1.265625 1.25 -1.054688 1.0625 -0.828125 C 0.96875 -0.703125 0.875 -0.59375 0.78125 -0.5 C 0.6875 -0.40625 0.5625 -0.273438 0.40625 -0.109375 C 0.71875 -0.109375 0.953125 -0.128906 1.109375 -0.171875 C 1.273438 -0.210938 1.359375 -0.296875 1.359375 -0.421875 Z M 1.359375 -0.421875 "/></g></g></g><g fill="#000000" fill-opacity="1"><g transform="translate(42.058103, 62.155664)"><g><path d="M 0.09375 -0.125 C 0.09375 -0.164062 0.109375 -0.203125 0.140625 -0.234375 C 0.171875 -0.265625 0.207031 -0.28125 0.25 -0.28125 C 0.289062 -0.28125 0.328125 -0.265625 0.359375 -0.234375 C 0.390625 -0.203125 0.40625 -0.164062 0.40625 -0.125 C 0.40625 -0.0820312 0.390625 -0.046875 0.359375 -0.015625 C 0.328125 0.015625 0.289062 0.03125 0.25 0.03125 C 0.207031 0.03125 0.171875 0.015625 0.140625 -0.015625 C 0.109375 -0.046875 0.09375 -0.0820312 0.09375 -0.125 Z M 0.09375 -0.125 "/></g></g></g><g fill="#000000" fill-opacity="1"><g transform="translate(42.950268, 62.155664)"><g><path d="M 0.96875 -0.65625 C 0.96875 -0.382812 0.976562 -0.222656 1 -0.171875 C 1.007812 -0.148438 1.019531 -0.125 1.03125 -0.09375 C 1.050781 -0.0703125 1.078125 -0.0625 1.109375 -0.0625 C 1.160156 -0.0390625 1.226562 -0.03125 1.3125 -0.03125 L 1.328125 0 L 0.421875 0 L 0.421875 -0.03125 C 0.484375 -0.03125 0.53125 -0.03125 0.5625 -0.03125 C 0.59375 -0.0390625 0.625 -0.0507812 0.65625 -0.0625 C 0.6875 -0.0820312 0.707031 -0.101562 0.71875 -0.125 C 0.726562 -0.15625 0.738281 -0.195312 0.75 -0.25 C 0.757812 -0.320312 0.765625 -0.457031 0.765625 -0.65625 L 0.765625 -1.4375 C 0.765625 -1.5625 0.722656 -1.625 0.640625 -1.625 C 0.578125 -1.625 0.46875 -1.59375 0.3125 -1.53125 L 0.28125 -1.578125 C 0.613281 -1.734375 0.832031 -1.84375 0.9375 -1.90625 L 0.96875 -1.890625 Z M 0.96875 -0.65625 "/></g></g></g><g fill="#000000" fill-opacity="1"><g transform="translate(44.944983, 62.155664)"><g><path d="M 0.140625 -0.9375 C 0.140625 -1.238281 0.203125 -1.472656 0.328125 -1.640625 C 0.453125 -1.816406 0.609375 -1.90625 0.796875 -1.90625 C 0.992188 -1.90625 1.15625 -1.816406 1.28125 -1.640625 C 1.40625 -1.472656 1.46875 -1.238281 1.46875 -0.9375 C 1.46875 -0.632812 1.40625 -0.394531 1.28125 -0.21875 C 1.164062 -0.0507812 1.007812 0.03125 0.8125 0.03125 C 0.613281 0.03125 0.453125 -0.0507812 0.328125 -0.21875 C 0.203125 -0.394531 0.140625 -0.632812 0.140625 -0.9375 Z M 0.34375 -0.9375 C 0.34375 -0.675781 0.382812 -0.460938 0.46875 -0.296875 C 0.5625 -0.140625 0.671875 -0.0625 0.796875 -0.0625 C 0.929688 -0.0625 1.039062 -0.140625 1.125 -0.296875 C 1.21875 -0.460938 1.265625 -0.675781 1.265625 -0.9375 C 1.265625 -1.195312 1.21875 -1.410156 1.125 -1.578125 C 1.039062 -1.742188 0.929688 -1.828125 0.796875 -1.828125 C 0.671875 -1.828125 0.5625 -1.742188 0.46875 -1.578125 C 0.382812 -1.410156 0.34375 -1.195312 0.34375 -0.9375 Z M 0.34375 -0.9375 "/></g></g></g><g fill="#000000" fill-opacity="1"><g transform="translate(46.939699, 62.155664)"><g><path d="M 0.09375 -0.125 C 0.09375 -0.164062 0.109375 -0.203125 0.140625 -0.234375 C 0.171875 -0.265625 0.207031 -0.28125 0.25 -0.28125 C 0.289062 -0.28125 0.328125 -0.265625 0.359375 -0.234375 C 0.390625 -0.203125 0.40625 -0.164062 0.40625 -0.125 C 0.40625 -0.0820312 0.390625 -0.046875 0.359375 -0.015625 C 0.328125 0.015625 0.289062 0.03125 0.25 0.03125 C 0.207031 0.03125 0.171875 0.015625 0.140625 -0.015625 C 0.109375 -0.046875 0.09375 -0.0820312 0.09375 -0.125 Z M 0.09375 -0.125 "/></g></g></g><g fill="#000000" fill-opacity="1"><g transform="translate(47.831864, 62.155664)"><g><path d="M 1.359375 -0.421875 L 1.390625 -0.421875 L 1.390625 0 L 0.21875 0 L 0.21875 -0.03125 C 0.5 -0.3125 0.71875 -0.578125 0.875 -0.828125 C 1.039062 -1.078125 1.125 -1.289062 1.125 -1.46875 C 1.125 -1.570312 1.09375 -1.65625 1.03125 -1.71875 C 0.976562 -1.789062 0.898438 -1.828125 0.796875 -1.828125 C 0.734375 -1.828125 0.675781 -1.8125 0.625 -1.78125 C 0.570312 -1.75 0.535156 -1.710938 0.515625 -1.671875 C 0.492188 -1.640625 0.46875 -1.609375 0.4375 -1.578125 C 0.40625 -1.546875 0.375 -1.53125 0.34375 -1.53125 C 0.320312 -1.53125 0.300781 -1.539062 0.28125 -1.5625 C 0.257812 -1.582031 0.25 -1.601562 0.25 -1.625 C 0.25 -1.695312 0.300781 -1.757812 0.40625 -1.8125 C 0.519531 -1.875 0.648438 -1.90625 0.796875 -1.90625 C 0.953125 -1.90625 1.082031 -1.867188 1.1875 -1.796875 C 1.289062 -1.722656 1.34375 -1.609375 1.34375 -1.453125 C 1.34375 -1.265625 1.25 -1.054688 1.0625 -0.828125 C 0.96875 -0.703125 0.875 -0.59375 0.78125 -0.5 C 0.6875 -0.40625 0.5625 -0.273438 0.40625 -0.109375 C 0.71875 -0.109375 0.953125 -0.128906 1.109375 -0.171875 C 1.273438 -0.210938 1.359375 -0.296875 1.359375 -0.421875 Z M 1.359375 -0.421875 "/></g></g></g><g fill="#000000" fill-opacity="1"><g transform="translate(49.826579, 62.155664)"><g><path d="M 0.140625 -0.9375 C 0.140625 -1.238281 0.203125 -1.472656 0.328125 -1.640625 C 0.453125 -1.816406 0.609375 -1.90625 0.796875 -1.90625 C 0.992188 -1.90625 1.15625 -1.816406 1.28125 -1.640625 C 1.40625 -1.472656 1.46875 -1.238281 1.46875 -0.9375 C 1.46875 -0.632812 1.40625 -0.394531 1.28125 -0.21875 C 1.164062 -0.0507812 1.007812 0.03125 0.8125 0.03125 C 0.613281 0.03125 0.453125 -0.0507812 0.328125 -0.21875 C 0.203125 -0.394531 0.140625 -0.632812 0.140625 -0.9375 Z M 0.34375 -0.9375 C 0.34375 -0.675781 0.382812 -0.460938 0.46875 -0.296875 C 0.5625 -0.140625 0.671875 -0.0625 0.796875 -0.0625 C 0.929688 -0.0625 1.039062 -0.140625 1.125 -0.296875 C 1.21875 -0.460938 1.265625 -0.675781 1.265625 -0.9375 C 1.265625 -1.195312 1.21875 -1.410156 1.125 -1.578125 C 1.039062 -1.742188 0.929688 -1.828125 0.796875 -1.828125 C 0.671875 -1.828125 0.5625 -1.742188 0.46875 -1.578125 C 0.382812 -1.410156 0.34375 -1.195312 0.34375 -0.9375 Z M 0.34375 -0.9375 "/></g></g></g><g fill="#000000" fill-opacity="1"><g transform="translate(51.821295, 62.155664)"><g><path d="M 1.359375 -0.421875 L 1.390625 -0.421875 L 1.390625 0 L 0.21875 0 L 0.21875 -0.03125 C 0.5 -0.3125 0.71875 -0.578125 0.875 -0.828125 C 1.039062 -1.078125 1.125 -1.289062 1.125 -1.46875 C 1.125 -1.570312 1.09375 -1.65625 1.03125 -1.71875 C 0.976562 -1.789062 0.898438 -1.828125 0.796875 -1.828125 C 0.734375 -1.828125 0.675781 -1.8125 0.625 -1.78125 C 0.570312 -1.75 0.535156 -1.710938 0.515625 -1.671875 C 0.492188 -1.640625 0.46875 -1.609375 0.4375 -1.578125 C 0.40625 -1.546875 0.375 -1.53125 0.34375 -1.53125 C 0.320312 -1.53125 0.300781 -1.539062 0.28125 -1.5625 C 0.257812 -1.582031 0.25 -1.601562 0.25 -1.625 C 0.25 -1.695312 0.300781 -1.757812 0.40625 -1.8125 C 0.519531 -1.875 0.648438 -1.90625 0.796875 -1.90625 C 0.953125 -1.90625 1.082031 -1.867188 1.1875 -1.796875 C 1.289062 -1.722656 1.34375 -1.609375 1.34375 -1.453125 C 1.34375 -1.265625 1.25 -1.054688 1.0625 -0.828125 C 0.96875 -0.703125 0.875 -0.59375 0.78125 -0.5 C 0.6875 -0.40625 0.5625 -0.273438 0.40625 -0.109375 C 0.71875 -0.109375 0.953125 -0.128906 1.109375 -0.171875 C 1.273438 -0.210938 1.359375 -0.296875 1.359375 -0.421875 Z M 1.359375 -0.421875 "/></g></g></g><g fill="#000000" fill-opacity="1"><g transform="translate(53.816012, 62.155664)"><g><path d="M 1.359375 -0.421875 L 1.390625 -0.421875 L 1.390625 0 L 0.21875 0 L 0.21875 -0.03125 C 0.5 -0.3125 0.71875 -0.578125 0.875 -0.828125 C 1.039062 -1.078125 1.125 -1.289062 1.125 -1.46875 C 1.125 -1.570312 1.09375 -1.65625 1.03125 -1.71875 C 0.976562 -1.789062 0.898438 -1.828125 0.796875 -1.828125 C 0.734375 -1.828125 0.675781 -1.8125 0.625 -1.78125 C 0.570312 -1.75 0.535156 -1.710938 0.515625 -1.671875 C 0.492188 -1.640625 0.46875 -1.609375 0.4375 -1.578125 C 0.40625 -1.546875 0.375 -1.53125 0.34375 -1.53125 C 0.320312 -1.53125 0.300781 -1.539062 0.28125 -1.5625 C 0.257812 -1.582031 0.25 -1.601562 0.25 -1.625 C 0.25 -1.695312 0.300781 -1.757812 0.40625 -1.8125 C 0.519531 -1.875 0.648438 -1.90625 0.796875 -1.90625 C 0.953125 -1.90625 1.082031 -1.867188 1.1875 -1.796875 C 1.289062 -1.722656 1.34375 -1.609375 1.34375 -1.453125 C 1.34375 -1.265625 1.25 -1.054688 1.0625 -0.828125 C 0.96875 -0.703125 0.875 -0.59375 0.78125 -0.5 C 0.6875 -0.40625 0.5625 -0.273438 0.40625 -0.109375 C 0.71875 -0.109375 0.953125 -0.128906 1.109375 -0.171875 C 1.273438 -0.210938 1.359375 -0.296875 1.359375 -0.421875 Z M 1.359375 -0.421875 "/></g></g></g></svg>